<svg xmlns="http://www.w3.org/2000/svg" viewBox="0 0 95 89.801"><path d="M30.077,46H1.992V40l13.16-13.825a32.974,32.974,0,0,0,4.065-5.239,8.422,8.422,0,0,0,1.316-4.248,6.3,6.3,0,0,0-1.388-4.319A5.012,5.012,0,0,0,15.18,10.8,5.406,5.406,0,0,0,10.8,12.711,8.434,8.434,0,0,0,8.992,18h-8a14.5,14.5,0,0,1,1.8-7.146A12.669,12.669,0,0,1,7.874,5.97,15.462,15.462,0,0,1,15.322,4.2q6.372,0,9.9,3.059T28.746,15.9a13.859,13.859,0,0,1-1.586,6.231,34.653,34.653,0,0,1-5.438,7.391L12.992,39h17Z" transform="translate(-0.992 -4.201)" fill="#226d7a"></path><path d="M89.974,64.807l5.018-2.628L91.886,53.1l-5.5.717c-.956-1.434-2.389-2.867-3.584-4.3l1.434-5.5-8.6-4.3-3.345,4.539a42.652,42.652,0,0,0-5.5-.478L64.169,39l-9.08,3.106.717,5.5a31.167,31.167,0,0,0-4.3,3.585l-5.5-1.434-4.3,8.6,4.54,3.345a22.318,22.318,0,0,0-.478,5.495l-4.779,2.629L44.1,78.9l5.5-.716a31.022,31.022,0,0,0,3.584,4.3l-1.434,5.5,8.6,4.3,3.345-4.54a21.392,21.392,0,0,0,5.5.478L71.815,93,80.9,89.9l-.717-5.5c1.433-.956,2.867-2.389,4.3-3.584l5.5,1.434,4.3-8.6L89.735,70.3A21.213,21.213,0,0,0,89.974,64.807ZM67.992,74A8.136,8.136,0,0,1,60,66c-.194-4.321,3.812-8,7.993-8a8.135,8.135,0,0,1,7.993,8C76.179,70.322,72.173,74,67.992,74Z" transform="translate(-0.992 -4.201)" fill="#e3f4f9"></path><path d="M71.815,94a1,1,0,0,1-.876-.518L68.6,89.222a22.125,22.125,0,0,1-4.487-.358L61.15,92.878a1,1,0,0,1-1.252.3l-8.6-4.3a1,1,0,0,1-.521-1.147l1.3-4.989c-.286-.323-.582-.637-.877-.951a19.4,19.4,0,0,1-2.118-2.53l-4.856.633a1,1,0,0,1-1.075-.668l-3.106-9.079a1,1,0,0,1,.464-1.2L44.771,66.6a22.919,22.919,0,0,1,.359-4.485L41.116,59.16a1,1,0,0,1-.3-1.252l4.3-8.6a1,1,0,0,1,1.146-.52l4.99,1.3c.323-.286.636-.582.951-.877a19.232,19.232,0,0,1,2.529-2.118L54.1,42.237a1,1,0,0,1,.668-1.075l9.079-3.107a1,1,0,0,1,1.2.464l2.348,4.269a42.78,42.78,0,0,1,4.443.405l3-4.067a1,1,0,0,1,1.252-.3l8.6,4.3a1,1,0,0,1,.521,1.146l-1.3,4.994c.293.341.6.681.9,1.022.711.8,1.444,1.624,2.058,2.459l4.9-.638a1,1,0,0,1,1.075.668l3.106,9.079a1,1,0,0,1-.482,1.209l-4.42,2.317a22.156,22.156,0,0,1-.235,4.464l4.067,3a1,1,0,0,1,.3,1.252l-4.3,8.6a1.006,1.006,0,0,1-1.147.521l-4.994-1.3c-.341.293-.68.595-1.021.9-.8.711-1.624,1.444-2.459,2.058l.638,4.9a1,1,0,0,1-.668,1.076l-9.08,3.106A1,1,0,0,1,71.815,94Zm-8.124-7.257a1.01,1.01,0,0,1,.243.03,20.575,20.575,0,0,0,5.252.448,1,1,0,0,1,.876.518l2.224,4.043,7.511-2.57-.611-4.685a1,1,0,0,1,.437-.961,27.357,27.357,0,0,0,2.756-2.25c.486-.433.972-.865,1.46-1.27a1,1,0,0,1,.891-.2l4.712,1.23,3.563-7.124-3.863-2.847a1,1,0,0,1-.4-.929l.04-.318a19.069,19.069,0,0,0,.2-4.929,1,1,0,0,1,.529-1.009l4.257-2.231L91.2,54.2l-4.685.61a1,1,0,0,1-.961-.436,27.11,27.11,0,0,0-2.25-2.756c-.432-.486-.865-.973-1.27-1.46a1,1,0,0,1-.2-.892l1.229-4.711-7.124-3.563L73.1,44.851a.994.994,0,0,1-.928.4l-.574-.073a36.866,36.866,0,0,0-4.8-.4,1,1,0,0,1-.876-.518L63.7,40.219,56.187,42.79l.611,4.684a1,1,0,0,1-.5,1,14.85,14.85,0,0,0-2.731,2.2c-.466.439-.933.878-1.427,1.289a1.006,1.006,0,0,1-.891.2l-4.712-1.229L42.979,58.05,46.842,60.9a1,1,0,0,1,.377,1.048A21.454,21.454,0,0,0,46.77,67.2a1,1,0,0,1-.517.876L42.21,70.3l2.57,7.51,4.685-.61a1.01,1.01,0,0,1,1,.5,14.8,14.8,0,0,0,2.195,2.731c.439.465.878.932,1.289,1.426a1,1,0,0,1,.2.892l-1.229,4.712,7.124,3.562,2.846-3.862A1,1,0,0,1,63.691,86.745ZM67.992,75A9.168,9.168,0,0,1,59,66.047a8.328,8.328,0,0,1,2.418-6.14,8.961,8.961,0,0,1,15.566,6.05A8.327,8.327,0,0,1,74.566,72.1,9.191,9.191,0,0,1,67.992,75Zm0-16a7.283,7.283,0,0,0-5.129,2.288A6.352,6.352,0,0,0,61,65.957,7.174,7.174,0,0,0,67.992,73a7.288,7.288,0,0,0,5.129-2.288,6.353,6.353,0,0,0,1.865-4.667A7.174,7.174,0,0,0,67.992,59Z" transform="translate(-0.992 -4.201)" fill="#256e7a"></path></svg>