<svg xmlns="http://www.w3.org/2000/svg" viewBox="0 0 85 90"><polygon points="84 72 84 58 76 51 45 51 37 58 37 72 49 81 49 62 49 89 72 89 72 81 84 72" fill="#e4f5fa"></polygon><circle cx="60.5" cy="35.5" r="13.5" fill="#e4f5fa"></circle><path d="M91.65,60.249l-8-7c-.005-.005-.012-.006-.017-.01a.929.929,0,0,0-.109-.066.985.985,0,0,0-.215-.114.955.955,0,0,0-.14-.025A.967.967,0,0,0,82.992,53h-31a1,1,0,0,0-.211.038.958.958,0,0,0-.119.022.992.992,0,0,0-.263.148c-.019.014-.042.02-.06.035l0,0-8,7a1,1,0,0,0-.342.753V75a1,1,0,0,0,.4.8l11.6,8.7V92a1,1,0,0,0,1,1h23a1,1,0,0,0,1-1V84.5l11.6-8.7a1,1,0,0,0,.4-.8V61A1,1,0,0,0,91.65,60.249ZM78.991,55,67.977,60.876,56.228,55Zm11,19.5-10,7.5V65a1,1,0,0,0-2,0V91h-21V65a1,1,0,0,0-2,0V82l-10-7.5V61.456L52.145,55.2l15.4,7.7c.013.007.028,0,.041.01a1,1,0,0,0,.4.095h0a1,1,0,0,0,.254-.035c.028-.008.053-.021.08-.031a1.114,1.114,0,0,0,.136-.051l14.39-7.676,7.139,6.247Z" transform="translate(-6.992 -3.002)" fill="#226d7a"></path><path d="M81.992,38.5A14.5,14.5,0,1,0,67.492,53,14.517,14.517,0,0,0,81.992,38.5ZM67.492,51a12.5,12.5,0,1,1,12.5-12.5A12.514,12.514,0,0,1,67.492,51Z" transform="translate(-6.992 -3.002)" fill="#226d7a"></path><path d="M24.992,44h-8V13l-10,3V9l17-6h1Z" transform="translate(-6.992 -3.002)" fill="#226d7a"></path>
                			</svg>