<svg id="f86986bd-1b66-4e3b-8d45-6c526263384e" data-name="Layer 1" xmlns="http://www.w3.org/2000/svg" viewBox="0 0 1200 182"><title>woo-warn</title><rect width="1200" height="182" fill="#fff" opacity="0"/><path d="M34.4414,33.5112c-.062,0-.1235-.0005-.186-.0024a7.2184,7.2184,0,1,1,.186.0024Zm-5.2222-7.354A5.2214,5.2214,0,1,0,34.5718,21.07a5.2277,5.2277,0,0,0-5.3526,5.0869Z" fill="#8e5d25"/><path d="M25.1128,25.646a.9994.9994,0,0,1-.9961-.9263,7.5075,7.5075,0,0,1,3.8374-7.0415,1,1,0,0,1,.957,1.7559,5.5541,5.5541,0,0,0-2.8,5.1382.9993.9993,0,0,1-.9233,1.0708Q25.15,25.646,25.1128,25.646Z" fill="#8e5d25"/><path d="M1199,144.7964a.9891.9891,0,0,1-.1318-.0088l-15.8067-2.0962a1.0005,1.0005,0,0,1-.6582-1.6045l9.6983-12.4883a1.0006,1.0006,0,0,1,1.7129.2271l6.1074,14.5845a1,1,0,0,1-.9219,1.3862Zm-13.9482-3.8584,12.3525,1.6382-4.7734-11.398Z" fill="#8e5d25"/><path d="M70.2129,171.6152a.9887.9887,0,0,1-.1314-.0088L54.2744,169.51a1,1,0,0,1-.6587-1.6045l9.6983-12.4883a1,1,0,0,1,1.7124.227l6.1089,14.5845a1,1,0,0,1-.9224,1.3862Zm-13.9492-3.8584,12.354,1.6382-4.7744-11.3979Z" fill="#8e5d25"/><path d="M361.1514,157.3184a1.0342,1.0342,0,0,1-.15-.0113,1,1,0,0,1-.7818-.6269l-5.7182-14.7417a1,1,0,0,1,1.0757-1.3516l15.6479,2.2661a1,1,0,0,1,.6392,1.6123l-9.93,12.4756A1,1,0,0,1,361.1514,157.3184Zm-4.1665-14.5064,4.4687,11.52,7.7608-9.75Z" fill="#8e5d25"/><path d="M1181.9219,70.2573a.9906.9906,0,0,1-.1319-.0088l-15.8076-2.0957a1.0005,1.0005,0,0,1-.6582-1.6045l9.6992-12.4887a1.0006,1.0006,0,0,1,1.7129.227l6.1075,14.5845a1,1,0,0,1-.9219,1.3862Zm-13.9492-3.8579,12.3535,1.6377-4.7735-11.3979Z" fill="#8e5d25"/><path d="M220.2061,31.7246a1.0007,1.0007,0,0,1-.9908-1.1367l1.981-14.3823a1,1,0,0,1,1.5967-.6592l11.5517,8.7949a1,1,0,0,1-.2241,1.72l-13.5327,5.5879A1.0005,1.0005,0,0,1,220.2061,31.7246Zm2.7377-13.55-1.5092,10.9605,10.3125-4.2583Z" fill="#8e5d25"/><path d="M745.6548,172.4346a8.8968,8.8968,0,0,1-6.4688-2.771h0a8.9317,8.9317,0,1,1,6.4693,2.771Zm-5.0195-4.149a6.9217,6.9217,0,1,0,.249-9.7851,6.93,6.93,0,0,0-.249,9.7851Z" fill="#8e5d25"/><path d="M577.4727,27.8428c-.0777,0-.1548-.001-.2325-.003a8.8622,8.8622,0,0,1-6.24-2.7724h0a8.921,8.921,0,1,1,6.4727,2.7754ZM572.45,23.69a6.9214,6.9214,0,1,0,5.1929-11.6875,6.859,6.859,0,0,0-4.9439,1.9023A6.9293,6.9293,0,0,0,572.45,23.69Z" fill="#8e5d25"/><path d="M1094.3848,68.2842c-.0782,0-.1553-.001-.2325-.003a8.9077,8.9077,0,1,1,.2325.003Zm-.0108-15.8428a6.9215,6.9215,0,0,0-5.0127,11.6895h0a6.9214,6.9214,0,1,0,5.1934-11.6871C1094.4941,52.4424,1094.4346,52.4414,1094.374,52.4414Z" fill="#8e5d25"/><path d="M971.7676,164.4014a8.8966,8.8966,0,0,1-6.4688-2.771h0a8.9323,8.9323,0,1,1,6.4688,2.771Zm-5.02-4.149a6.92,6.92,0,1,0-1.9023-4.9443,6.9309,6.9309,0,0,0,1.9023,4.9443Z" fill="#8e5d25"/><path d="M1107.0537,135.8384c-.1367,0-.2725-.002-.4092-.0054a15.6405,15.6405,0,1,1,.4092.0054Zm-.02-29.3462a13.6713,13.6713,0,1,0,.3564.0044C1107.2705,106.4937,1107.1514,106.4922,1107.0332,106.4922Z" fill="#8e5d25"/><path d="M306.7842,180.8115a1,1,0,0,1-.3208-1.9477,5.3634,5.3634,0,0,0,2.6885-1.6763,3.5163,3.5163,0,0,0,.7446-1.91,1,1,0,1,1,1.9931.169,5.5328,5.5328,0,0,1-1.1562,2.9653,7.3737,7.3737,0,0,1-3.6284,2.3462A.9967.9967,0,0,1,306.7842,180.8115Zm2.1-10.4756a.9981.9981,0,0,1-.85-.4721c-.6128-.9854-1.2945-1.9263-1.82-2.6358-.6377-.8613-1.2549-1.7612-1.8355-2.6748a1,1,0,0,1,1.6885-1.0722c.5547.8735,1.145,1.7338,1.7544,2.5566.5478.74,1.2607,1.7236,1.9111,2.77a1,1,0,0,1-.8481,1.5278ZM302.1587,159.34a1.0011,1.0011,0,0,1-.9116-.5879,49.47,49.47,0,0,1-2.3057-6.1694,1,1,0,0,1,1.916-.5742,47.2876,47.2876,0,0,0,2.2119,5.9184,1.0007,1.0007,0,0,1-.9106,1.4131ZM298.45,147.0078a1,1,0,0,1-.9858-.8389,52.4161,52.4161,0,0,1-.6485-6.5473,1.0008,1.0008,0,0,1,.9639-1.0352.9815.9815,0,0,1,1.0351.9639,50.3666,50.3666,0,0,0,.6231,6.2964,1,1,0,0,1-.8257,1.1479A1.0209,1.0209,0,0,1,298.45,147.0078Zm-42.7363-5.895-.7251-.0015a1,1,0,0,1,.0039-2h.0039l.7173.0015c1.8886,0,3.8095-.0254,5.709-.0752a.9891.9891,0,0,1,1.0258.9731.9992.9992,0,0,1-.9731,1.0259C259.5586,141.0874,257.62,141.1128,255.7139,141.1128Zm-7.1773-.1187-.0337,0c-2.1513-.0713-4.3315-.1763-6.479-.3121a1,1,0,0,1,.126-1.9961c2.1279.1343,4.2876.2383,6.4194.3091a1,1,0,0,1-.0327,2Zm19.3628-.2236a1,1,0,0,1-.0552-1.9985c2.1294-.12,4.2867-.2735,6.4107-.4561a.984.984,0,0,1,1.082.91,1,1,0,0,1-.91,1.082c-2.1441.1846-4.3208.34-6.47.4609C267.9375,140.77,267.9185,140.7705,267.8994,140.7705Zm-32.2485-.59c-.0308,0-.0625-.0015-.0943-.0044-2.1494-.2007-4.3193-.4361-6.4482-.6992a1,1,0,0,1,.2451-1.9854c2.11.2612,4.2593.4941,6.39.6934a1,1,0,0,1-.0923,1.9956Zm45.1133-.52a1,1,0,0,1-.1138-1.9931c2.125-.2471,4.269-.5288,6.3721-.8374a1,1,0,0,1,.29,1.9785c-2.1226.3115-4.2866.5962-6.4316.8452A.9387.9387,0,0,1,280.7642,139.6611Zm-57.9224-1.102a1.044,1.044,0,0,1-.1729-.0147,64.8922,64.8922,0,0,1-6.4-1.4218,1,1,0,0,1,.54-1.9258,62.7852,62.7852,0,0,0,6.2036,1.3769,1,1,0,0,1-.1709,1.9854Zm70.6982-.7715a1,1,0,0,1-.1738-1.9849c2.103-.373,4.2261-.7822,6.3106-1.2173a1,1,0,0,1,.4082,1.9581c-2.104.4389-4.2471.852-6.3692,1.229A1.0352,1.0352,0,0,1,293.54,137.7876Zm12.6363-2.6538a1,1,0,0,1-.2471-1.9692,52.4889,52.4889,0,0,0,6.0435-1.8912,1,1,0,1,1,.7255,1.8633,54.2371,54.2371,0,0,1-6.2739,1.9654A.9942.9942,0,0,1,306.1763,135.1338Zm-95.7012-.1734a.9915.9915,0,0,1-.4189-.0922,30.372,30.372,0,0,1-5.7183-3.419,1,1,0,0,1,1.2158-1.5879,28.37,28.37,0,0,0,5.3413,3.1914,1,1,0,0,1-.42,1.9077Zm87.519-.8242c-.03,0-.061-.0014-.0922-.0044a.9992.9992,0,0,1-.9043-1.0869,51.0023,51.0023,0,0,1,1.02-6.5024,1,1,0,1,1,1.9512.4375,49.1076,49.1076,0,0,0-.98,6.2475A1,1,0,0,1,297.9941,134.1362Zm20.09-3.8457a1,1,0,0,1-.5513-1.8349l.3711-.2491a20.0546,20.0546,0,0,0,4.1978-3.8413,1,1,0,0,1,1.5478,1.2666,22.0446,22.0446,0,0,1-4.6172,4.2261l-.3989.2676A.9939.9939,0,0,1,318.0845,130.2905Zm-17.2627-8.7173a1.0011,1.0011,0,0,1-.9375-1.3481,46.9253,46.9253,0,0,1,2.7178-6.0063,1,1,0,1,1,1.7587.9521,44.9261,44.9261,0,0,0-2.6015,5.7495A1,1,0,0,1,300.8218,121.5732Zm25.1767-1.1831a1.0013,1.0013,0,0,1-.9516-1.3076,12.7067,12.7067,0,0,0,.63-3.9043l-.0019-.1992a9.8643,9.8643,0,0,0-.1924-1.7632,1,1,0,0,1,1.9609-.3926,11.8733,11.8733,0,0,1,.2315,2.1187l.0019.2363a14.709,14.709,0,0,1-.727,4.5186A1.0011,1.0011,0,0,1,325.9985,120.39ZM307.02,110.3052a1,1,0,0,1-.771-1.6367,17.6181,17.6181,0,0,1,5.1724-4.4224,1,1,0,0,1,.9414,1.7646,15.6326,15.6326,0,0,0-4.5708,3.9312A.9992.9992,0,0,1,307.02,110.3052Zm16.5654-1.9834a.999.999,0,0,1-.7441-.3311,9.145,9.145,0,0,0-4.9062-2.93,1,1,0,1,1,.3906-1.9619,11.0058,11.0058,0,0,1,6.0029,3.5542,1,1,0,0,1-.7432,1.669Z" fill="#8e5d25"/><path d="M824.1211,181.5342a.9943.9943,0,0,1-.6411-.2329,39.0422,39.0422,0,0,0-5.1309-3.6338,1,1,0,1,1,1.02-1.7207,41.0736,41.0736,0,0,1,5.3945,3.82,1,1,0,0,1-.6421,1.7671Zm-11.0542-6.5635a.9918.9918,0,0,1-.3691-.0713,47.5164,47.5164,0,0,0-6.0176-1.9233,1,1,0,0,1,.4853-1.9405,49.5383,49.5383,0,0,1,6.2715,2.0054,1,1,0,0,1-.37,1.93Zm-12.48-3.1919a1.0443,1.0443,0,0,1-.1548-.0117,23.4564,23.4564,0,0,1-6.5019-1.7715,1,1,0,1,1,.8828-1.7949,21.671,21.671,0,0,0,5.9258,1.59,1,1,0,0,1-.1519,1.9883Zm-9.5615-6.7095c-.0244,0-.0493-.0009-.0742-.0024a1.0007,1.0007,0,0,1-.9243-1.0708,11.52,11.52,0,0,1,1.86-4.772c.28-.4892.5615-.979.813-1.4761a1,1,0,1,1,1.7842.9034c-.2666.5268-.564,1.0473-.8613,1.5664a9.9335,9.9335,0,0,0-1.6006,3.9248A1.0006,1.0006,0,0,1,791.0254,165.0693Zm3.21-12.1264a1,1,0,0,1-.9615-.7281,10.0012,10.0012,0,0,0-3.1748-4.8325,1,1,0,0,1,1.291-1.5273,12.0149,12.0149,0,0,1,3.8077,5.8149,1.0022,1.0022,0,0,1-.9624,1.273Zm-11.2564-7.4312a1,1,0,0,1-.2383-1.9712,8.6535,8.6535,0,0,1,2.0674-.25,1.0229,1.0229,0,0,1,1.0264,1,.978.978,0,0,1-.9737,1c-.0092,0-.0712,0-.0805-.001a6.6017,6.6017,0,0,0-1.5611.1929A1.0167,1.0167,0,0,1,782.979,145.5117Z" fill="#8e5d25"/><path d="M831.6709,181.36a1,1,0,0,1-.8428-1.5367c1.0718-1.6855,2.1675-3.3408,3.2569-4.9209a1,1,0,0,1,1.6464,1.1358c-1.0752,1.5591-2.1572,3.1938-3.2158,4.8584A.9985.9985,0,0,1,831.6709,181.36Zm7.0195-10.1177a1,1,0,0,1-.7949-1.6055c1.3213-1.7378,2.689-3.4458,4.0645-5.0762a1,1,0,0,1,1.5283,1.29c-1.3535,1.6045-2.7,3.2856-4.001,4.9971A1,1,0,0,1,838.69,171.2422Zm8.3208-9.8584a1,1,0,0,1-.73-1.6831c1.4449-1.5445,2.98-3.1035,4.56-4.6343a1,1,0,1,1,1.3916,1.4365c-1.5576,1.5083-3.0688,3.044-4.4917,4.564A.9972.9972,0,0,1,847.0112,161.3838Zm9.2583-8.9859a1,1,0,0,1-.6655-1.7465c1.5439-1.375,3.1523-2.7588,4.9165-4.2305a1,1,0,1,1,1.2813,1.5361c-1.7476,1.4576-3.34,2.8272-4.8677,4.1875A.9949.9949,0,0,1,856.27,152.3979Zm9.897-8.2841a1,1,0,0,1-.624-1.7818q2.4675-1.9672,5.0835-3.997a1,1,0,1,1,1.2275,1.5791q-2.61,2.0288-5.0639,3.9814A.9952.9952,0,0,1,866.1665,144.1138Zm10.1807-7.9351a1,1,0,0,1-.61-1.7925l1.7114-1.3164c1.042-.8008,2.2637-1.6372,3.63-2.4848a1,1,0,1,1,1.0547,1.6992c-1.31.813-2.4761,1.6108-3.4658,2.3716l-1.7105,1.3154A.9965.9965,0,0,1,876.3472,136.1787Zm10.9052-6.8833a1,1,0,0,1-.45-1.8935c1.9453-.9761,3.9458-1.8882,5.9463-2.71a1,1,0,1,1,.7608,1.85c-1.9546.8037-3.9092,1.6944-5.81,2.648A.9977.9977,0,0,1,887.2524,129.2954Zm11.9483-4.8789a1,1,0,0,1-.2949-1.9561,40.286,40.286,0,0,1,6.4506-1.4956,1,1,0,0,1,.2637,1.9825,38.2574,38.2574,0,0,0-6.1235,1.4243A1.0051,1.0051,0,0,1,899.2007,124.4165Z" fill="#8e5d25"/><path d="M1041.373,99.6245h-6.457a1,1,0,0,1,0-2h6.457a1,1,0,0,1,0,2Zm-12.914,0h-6.457a1,1,0,0,1,0-2h6.457a1,1,0,0,1,0,2Zm-12.9141,0h-3.3984a1,1,0,0,1-.8662-.5l-1.5293-2.6489a1,1,0,1,1,1.7324-1l1.24,2.1489h2.8213a1,1,0,0,1,0,2ZM1045.5635,95.7a1,1,0,0,1-.8653-1.5l3.2286-5.5923a1,1,0,0,1,1.7324,1L1046.4307,95.2A1,1,0,0,1,1045.5635,95.7ZM1007.39,91.3833a1,1,0,0,1-.8671-.5l-3.23-5.5918a1,1,0,0,1,1.7324-1l3.23,5.5918a1.0005,1.0005,0,0,1-.8653,1.5Zm44.6309-6.8672a1,1,0,0,1-.8652-1.5l3.2285-5.5923a1,1,0,1,1,1.7324,1l-3.2285,5.5923A1,1,0,0,1,1052.0205,84.5161Zm-51.0889-4.3169a1,1,0,0,1-.8671-.5l-3.2286-5.5918a1,1,0,0,1,1.7325-1l3.2285,5.5918a1,1,0,0,1-.8653,1.5Zm57.5459-6.8672a1,1,0,0,1-.8652-1.5l.1084-.187-2.5439-4.4053a1,1,0,1,1,1.7324-1l2.832,4.9053a1,1,0,0,1,0,1l-.3965.687A1,1,0,0,1,1058.4775,73.332Zm-59.8134-4.3164a1,1,0,0,1-.8653-1.5l3.2285-5.5923a1,1,0,0,1,1.7325,1l-3.2286,5.5923A1,1,0,0,1,998.6641,69.0156Zm54.1513-6.8681a1,1,0,0,1-.8672-.5l-3.2285-5.5918a1,1,0,1,1,1.7324-1l3.2286,5.5918a1,1,0,0,1-.8653,1.5Zm-47.6943-4.316a1,1,0,0,1-.8652-1.5l3.23-5.5922a1,1,0,1,1,1.7324,1l-3.23,5.5922A1,1,0,0,1,1005.1211,57.8315Zm41.2373-6.8681a1,1,0,0,1-.8672-.5l-2.7695-4.7974h-5.88a1,1,0,0,1,0-2h6.457a1,1,0,0,1,.8662.5l3.0586,5.2974a1,1,0,0,1-.8652,1.5Zm-34.7793-4.3159a1,1,0,0,1-.8652-1.5l.5664-.9815a1,1,0,0,1,.8662-.5h5.3242a1,1,0,0,1,0,2h-4.7471l-.2773.4815A1,1,0,0,1,1011.5791,46.6475Zm18.8057-.9815h-6.4571a1,1,0,0,1,0-2h6.4571a1,1,0,0,1,0,2Z" fill="#8e5d25"/><path d="M145.9052,78.1322c-1.5231-.2961-3.0041.55-4.4009,2.6232a13.6861,13.6861,0,0,0-2.2428,5.0353,14.7169,14.7169,0,0,0-.2962,3.0886,10.7272,10.7272,0,0,0,.7613,3.8506c.6342,1.65,1.4807,2.539,2.4964,2.7505,1.0576.2115,2.2-.2536,3.427-1.3538a11.1915,11.1915,0,0,0,3.2167-6.262v0a14.8519,14.8519,0,0,0,.2963-3.1308,10.7387,10.7387,0,0,0-.7614-3.8507C147.7674,79.2326,146.9209,78.3437,145.9052,78.1322Z" fill="#f0c99a"/><path d="M121.8707,80.8809c-.6342-1.65-1.4807-2.539-2.4964-2.7505-1.5232-.2961-3.0041.55-4.4006,2.6231a13.6817,13.6817,0,0,0-2.2432,5.0354,14.7235,14.7235,0,0,0-.2962,3.0886,10.7436,10.7436,0,0,0,.7609,3.8506c.635,1.6505,1.4811,2.539,2.4964,2.7505,1.058.2115,2.2006-.2536,3.4278-1.3538a11.1937,11.1937,0,0,0,3.2163-6.262v0a12.4847,12.4847,0,0,0,.2962-3.1309A10.7294,10.7294,0,0,0,121.8707,80.8809Z" fill="#f0c99a"/><path d="M151.5724,60.4438l-84.7278.4213a9.6617,9.6617,0,0,0-9.6119,9.7509l.1608,32.3419a9.6984,9.6984,0,0,0,9.7507,9.6546l40.13-.2,18.3924,10.1219-4.2213-10.1924,30.3844-.1511a9.6983,9.6983,0,0,0,9.6546-9.751l-.1608-32.3419A9.6984,9.6984,0,0,0,151.5724,60.4438ZM100.5161,103.14a5.0225,5.0225,0,0,1-.4936,2.7951,2.7275,2.7275,0,0,1-2.2352,1.5343,4.2541,4.2541,0,0,1-3.35-1.5488Q88.504,99.9192,84.996,87.9409q-4.0857,8.1445-6.0328,12.2163c-2.4728,4.7941-4.5762,7.2589-6.3528,7.3946-1.1422.09-2.12-.8783-2.9763-2.9047Q66.356,96.3484,62.493,72.5656a3.6025,3.6025,0,0,1,.6625-2.8382,3.4046,3.4046,0,0,1,2.6592-1.325q3.2361-.27,3.6966,3.028,2.0335,13.2558,4.3851,22.4474L83.0752,76.187q1.2579-2.4184,3.1614-2.5546c1.8612-.1361,3.0093,1.0426,3.4872,3.5369A79.0772,79.0772,0,0,0,93.8155,91.62q1.57-16.1294,5.47-23.3a3.25,3.25,0,0,1,2.7833-1.8761,3.6784,3.6784,0,0,1,2.67.8333,3.3146,3.3146,0,0,1,1.3237,2.4055,3.6753,3.6753,0,0,1-.4128,2.0331c-1.6353,3.0549-2.9642,8.1816-4.0287,15.2953A78.8344,78.8344,0,0,0,100.5161,103.14Zm25.9475-6.7728c-2.5179,4.2442-5.8078,6.3762-9.912,6.3966a11.084,11.084,0,0,1-2.2864-.2428,9.7439,9.7439,0,0,1-6.7944-4.8744,16.3843,16.3843,0,0,1-2.0727-8.368,22.4205,22.4205,0,0,1,3.2411-11.9487c2.56-4.2444,5.85-6.3764,9.912-6.3966a11.1072,11.1072,0,0,1,2.2864.2424A9.8339,9.8339,0,0,1,127.632,76.05a16.01,16.01,0,0,1,2.0724,8.3258A22.6721,22.6721,0,0,1,126.4636,96.3667Zm26.4883-.1317c-2.5178,4.2442-5.8077,6.3762-9.912,6.3966a11.0812,11.0812,0,0,1-2.2864-.2428,9.744,9.744,0,0,1-6.7944-4.8745,16.3847,16.3847,0,0,1-2.0726-8.368,22.4174,22.4174,0,0,1,3.2411-11.9487c2.56-4.2443,5.85-6.3763,9.912-6.3965a11.1163,11.1163,0,0,1,2.2863.2423,9.746,9.746,0,0,1,6.7944,4.8749,15.6146,15.6146,0,0,1,2.0725,8.3258A22.6749,22.6749,0,0,1,152.9519,96.235Z" fill="#f0c99a"/><path d="M143.0347,96.3472a3.5378,3.5378,0,0,1-.6807-.066c-1.4019-.2836-2.4936-1.4116-3.2529-3.3544a11.6713,11.6713,0,0,1-.8506-4.2051,15.6453,15.6453,0,0,1,.3017-3.3032,14.74,14.74,0,0,1,2.375-5.4146c1.5933-2.3931,3.4092-3.4258,5.3907-3.0552l.0132.003c1.394.2822,2.4853,1.4106,3.2441,3.353a11.6745,11.6745,0,0,1,.8506,4.2051,15.7023,15.7023,0,0,1-.3008,3.3447,12.0853,12.0853,0,0,1-3.4917,6.8154A5.4847,5.4847,0,0,1,143.0347,96.3472Zm2.5434-17.4678c-.9961,0-2.0034.7559-3,2.2534a12.7848,12.7848,0,0,0-2.07,4.7022,13.6949,13.6949,0,0,0-.2578,2.8764,9.8094,9.8094,0,0,0,.7129,3.4854c.3413.8745.9267,1.95,1.78,2.123a3.1966,3.1966,0,0,0,2.5488-1.1333,10.1954,10.1954,0,0,0,2.875-5.7407,13.7361,13.7361,0,0,0,.2588-2.9253,9.8377,9.8377,0,0,0-.7129-3.4863c-.34-.8716-.9233-1.9439-1.7725-2.1211A1.9741,1.9741,0,0,0,145.5781,78.8794Z" fill="#8e5d25"/><path d="M116.5044,96.4893a3.5522,3.5522,0,0,1-.6821-.066c-1.4-.2832-2.4917-1.4111-3.2515-3.354a11.6574,11.6574,0,0,1-.8506-4.205,15.6887,15.6887,0,0,1,.3008-3.3028,14.7445,14.7445,0,0,1,2.376-5.415c1.5932-2.3941,3.4092-3.4287,5.39-3.0547,1.4067.2847,2.4981,1.4126,3.2568,3.3545a11.6566,11.6566,0,0,1,.8511,4.2056,13.396,13.396,0,0,1-.3012,3.3457,12.078,12.078,0,0,1-3.4908,6.8149A5.4872,5.4872,0,0,1,116.5044,96.4893ZM119.041,79.02c-.9873,0-1.9951.7564-2.9931,2.2554a12.774,12.774,0,0,0-2.07,4.7021,13.6806,13.6806,0,0,0-.2573,2.876,9.81,9.81,0,0,0,.7124,3.4854c.3418.8745.9273,1.9507,1.7788,2.123a3.1967,3.1967,0,0,0,2.5508-1.1328,10.1982,10.1982,0,0,0,2.874-5.7407,11.4916,11.4916,0,0,0,.26-2.8867,9.8653,9.8653,0,0,0-.7139-3.5245l-.0009-.0024c-.34-.8721-.9253-1.9477-1.7784-2.1206A1.9613,1.9613,0,0,0,119.041,79.02Z" fill="#8e5d25"/><path d="M125.98,123.5264a1,1,0,0,1-.4819-.1236l-18.1685-9.99-39.87.2139a10.6988,10.6988,0,0,1-10.76-10.6451L56.5254,70.64A10.6616,10.6616,0,0,1,67.1279,59.88l84.7276-.4551.0053,1-.0053-1a10.6988,10.6988,0,0,1,10.76,10.6455l.1739,32.3418a10.6981,10.6981,0,0,1-10.6456,10.76l-28.896.1552,3.6553,8.816a1,1,0,0,1-.9238,1.3828Zm-18.396-12.1148a1.0017,1.0017,0,0,1,.4819.1236l15.899,8.7421-3.1338-7.559a1,1,0,0,1,.9184-1.3829l30.3843-.163a8.6984,8.6984,0,0,0,8.6563-8.7495l-.1739-32.3418a8.6979,8.6979,0,0,0-8.7011-8.6563h-.0484L67.1387,61.88a8.6611,8.6611,0,0,0-8.6133,8.7417l.1733,32.35A8.6981,8.6981,0,0,0,67.4,111.627h.0483l40.13-.2154Zm-34.8228-2.8408c-2.2519,0-3.3671-2.6348-3.7417-3.5205-2.2128-5.5952-4.6391-16.4575-7.22-32.3076a4.58,4.58,0,0,1,.856-3.6089A4.3726,4.3726,0,0,1,66.03,67.42c2.6821-.2309,4.3818,1.1533,4.7646,3.8848,1.1455,7.4492,2.4024,14.084,3.7417,19.7593l7.9463-15.33c1.0054-1.9346,2.3428-2.9751,3.9761-3.0928,1.6621-.1211,3.81.5308,4.5425,4.3442a87.0973,87.0973,0,0,0,2.5971,10.26c1.1-8.6611,2.8111-15.1758,5.1-19.4a4.221,4.221,0,0,1,3.5874-2.3975,4.6376,4.6376,0,0,1,3.36,1.0411A4.3046,4.3046,0,0,1,107.35,69.59a4.695,4.695,0,0,1-.523,2.5913c-1.55,2.899-2.8676,7.9366-3.9179,14.9786a78.1975,78.1975,0,0,0-1.0908,15.9023,6.0267,6.0267,0,0,1-.6016,3.334,3.7255,3.7255,0,0,1-3.0308,2.07,5.1426,5.1426,0,0,1-4.16-1.8457c-3.66-3.6987-6.666-9.0757-8.9493-16.0015-2.1557,4.3179-3.8037,7.668-4.9072,9.9785-2.7173,5.2735-4.9931,7.7955-7.1758,7.9634C72.915,108.5679,72.8369,108.5708,72.7607,108.5708ZM66.6,69.396c-.13,0-.2661.0059-.41.0181a2.4267,2.4267,0,0,0-1.9336.9179,2.6119,2.6119,0,0,0-.4829,2.0928C66.3311,88.13,68.7188,98.853,70.87,104.293c.3657.8642,1.0918,2.34,1.9688,2.2744.7812-.06,2.5366-1.0308,5.54-6.8584,1.2788-2.6773,3.31-6.794,6.023-12.209a1.0206,1.0206,0,0,1,.9843-.5479,1,1,0,0,1,.87.7164c2.2636,7.7651,5.3584,13.6709,9.1987,17.5522a3.3059,3.3059,0,0,0,2.5576,1.2539,1.7294,1.7294,0,0,0,1.437-1.0132,4.0031,4.0031,0,0,0,.3765-2.2353l-.0015-.0142a80.0278,80.0278,0,0,1,1.107-16.3457c1.1-7.3725,2.4511-12.4824,4.13-15.6221a2.674,2.674,0,0,0,.2959-1.5014,2.2989,2.2989,0,0,0-.9423-1.6773,2.6934,2.6934,0,0,0-1.9634-.6245,2.2648,2.2648,0,0,0-1.9893,1.3487c-2.5288,4.6669-4.3266,12.3789-5.35,22.9316a1,1,0,0,1-1.9228.2764,80.6109,80.6109,0,0,1-4.1514-14.6329c-.5508-2.8671-1.8725-2.7675-2.4331-2.728-.9077.0654-1.6743.7261-2.3467,2.0195L75.0859,94.35a1,1,0,0,1-1.8569-.2139c-1.5928-6.2714-3.0776-13.8549-4.4131-22.54C68.6,70.0542,67.9482,69.396,66.6,69.396Zm50.2085,34.3623a12.1878,12.1878,0,0,1-2.4385-.2622,10.7937,10.7937,0,0,1-7.4614-5.3506,17.4341,17.4341,0,0,1-2.21-8.8628,23.507,23.507,0,0,1,3.38-12.4726c2.7378-4.5435,6.3579-6.8594,10.76-6.8829a12.1206,12.1206,0,0,1,2.4927.2618,10.8328,10.8328,0,0,1,7.4614,5.3506,16.8912,16.8912,0,0,1,2.21,8.8208A23.7936,23.7936,0,0,1,127.6255,96.87c-2.6958,4.5474-6.3169,6.8648-10.7632,6.8887Zm2.0855-31.8311h-.0445c-3.708.02-6.6709,1.9551-9.0581,5.9166a21.5338,21.5338,0,0,0-3.0928,11.4282,15.4784,15.4784,0,0,0,1.9375,7.8652,8.7615,8.7615,0,0,0,6.1363,4.4,10.7041,10.7041,0,0,0,2.08.2212c3.747-.02,6.7089-1.9531,9.0542-5.91l.0019-.0029a21.5334,21.5334,0,0,0,3.0947-11.4741,14.97,14.97,0,0,0-1.9331-7.8159,8.8017,8.8017,0,0,0-6.1435-4.4077A10.1776,10.1776,0,0,0,118.8936,71.9272Zm24.4028,31.689a12.18,12.18,0,0,1-2.44-.2627,10.7927,10.7927,0,0,1-7.46-5.35,17.4368,17.4368,0,0,1-2.21-8.8628,23.507,23.507,0,0,1,3.38-12.4726c2.7378-4.5435,6.3579-6.8594,10.76-6.8833a12.0276,12.0276,0,0,1,2.4926.2622,10.7931,10.7931,0,0,1,7.4615,5.3506,16.6878,16.6878,0,0,1,2.21,8.833,23.79,23.79,0,0,1-3.376,12.4951c-2.6958,4.5483-6.3173,6.8667-10.7641,6.8906Zm2.0849-31.8315h-.0439c-3.708.02-6.6709,1.9555-9.0581,5.9165A21.5368,21.5368,0,0,0,133.1865,89.13a15.48,15.48,0,0,0,1.9375,7.8652,8.7579,8.7579,0,0,0,6.1358,4.3994,10.0849,10.0849,0,0,0,2.08.2217c3.7471-.02,6.709-1.9531,9.0542-5.91l.002-.003a21.54,21.54,0,0,0,3.0947-11.4746,14.75,14.75,0,0,0-1.9331-7.8154,8.7663,8.7663,0,0,0-6.1406-4.4072A10.1939,10.1939,0,0,0,145.3813,71.7847Z" fill="#8e5d25"/></svg>