<svg xmlns="http://www.w3.org/2000/svg" viewBox="0 0 1200 182"><rect width="1200" height="182" fill="#fff" opacity="0"/><path d="M34.4414,33.5112c-.062,0-.1235-.0005-.186-.0024a7.2184,7.2184,0,1,1,.186.0024Zm-5.2222-7.354A5.2214,5.2214,0,1,0,34.5718,21.07a5.2277,5.2277,0,0,0-5.3526,5.0869Z" fill="#8e5d25"/><path d="M25.1128,25.646a.9994.9994,0,0,1-.9961-.9263,7.5075,7.5075,0,0,1,3.8374-7.0415,1,1,0,0,1,.957,1.7559,5.5541,5.5541,0,0,0-2.8,5.1382.9993.9993,0,0,1-.9233,1.0708Q25.15,25.646,25.1128,25.646Z" fill="#8e5d25"/><path d="M1199,144.7964a.9891.9891,0,0,1-.1318-.0088l-15.8067-2.0962a1.0005,1.0005,0,0,1-.6582-1.6045l9.6983-12.4883a1.0006,1.0006,0,0,1,1.7129.2271l6.1074,14.5845a1,1,0,0,1-.9219,1.3862Zm-13.9482-3.8584,12.3525,1.6382-4.7734-11.398Z" fill="#8e5d25"/><path d="M70.2129,171.6152a.9887.9887,0,0,1-.1314-.0088L54.2744,169.51a1,1,0,0,1-.6587-1.6045l9.6983-12.4883a1,1,0,0,1,1.7124.227l6.1089,14.5845a1,1,0,0,1-.9224,1.3862Zm-13.9492-3.8584,12.354,1.6382-4.7744-11.3979Z" fill="#8e5d25"/><path d="M361.1514,157.3184a1.0342,1.0342,0,0,1-.15-.0113,1,1,0,0,1-.7818-.6269l-5.7182-14.7417a1,1,0,0,1,1.0757-1.3516l15.6479,2.2661a1,1,0,0,1,.6392,1.6123l-9.93,12.4756A1,1,0,0,1,361.1514,157.3184Zm-4.1665-14.5064,4.4687,11.52,7.7608-9.75Z" fill="#8e5d25"/><path d="M1181.9219,70.2573a.9906.9906,0,0,1-.1319-.0088l-15.8076-2.0957a1.0005,1.0005,0,0,1-.6582-1.6045l9.6992-12.4887a1.0006,1.0006,0,0,1,1.7129.227l6.1075,14.5845a1,1,0,0,1-.9219,1.3862Zm-13.9492-3.8579,12.3535,1.6377-4.7735-11.3979Z" fill="#8e5d25"/><path d="M220.2061,31.7246a1.0007,1.0007,0,0,1-.9908-1.1367l1.981-14.3823a1,1,0,0,1,1.5967-.6592l11.5517,8.7949a1,1,0,0,1-.2241,1.72l-13.5327,5.5879A1.0005,1.0005,0,0,1,220.2061,31.7246Zm2.7377-13.55-1.5092,10.9605,10.3125-4.2583Z" fill="#8e5d25"/><path d="M745.6548,172.4346a8.8968,8.8968,0,0,1-6.4688-2.771h0a8.9317,8.9317,0,1,1,6.4693,2.771Zm-5.0195-4.149a6.9217,6.9217,0,1,0,.249-9.7851,6.93,6.93,0,0,0-.249,9.7851Z" fill="#8e5d25"/><path d="M577.4727,27.8428c-.0777,0-.1548-.001-.2325-.003a8.8622,8.8622,0,0,1-6.24-2.7724h0a8.921,8.921,0,1,1,6.4727,2.7754ZM572.45,23.69a6.9214,6.9214,0,1,0,5.1929-11.6875,6.859,6.859,0,0,0-4.9439,1.9023A6.9293,6.9293,0,0,0,572.45,23.69Z" fill="#8e5d25"/><path d="M1094.3848,68.2842c-.0782,0-.1553-.001-.2325-.003a8.9077,8.9077,0,1,1,.2325.003Zm-.0108-15.8428a6.9215,6.9215,0,0,0-5.0127,11.6895h0a6.9214,6.9214,0,1,0,5.1934-11.6871C1094.4941,52.4424,1094.4346,52.4414,1094.374,52.4414Z" fill="#8e5d25"/><path d="M971.7676,164.4014a8.8966,8.8966,0,0,1-6.4688-2.771h0a8.9323,8.9323,0,1,1,6.4688,2.771Zm-5.02-4.149a6.92,6.92,0,1,0-1.9023-4.9443,6.9309,6.9309,0,0,0,1.9023,4.9443Z" fill="#8e5d25"/><path d="M1107.0537,135.8384c-.1367,0-.2725-.002-.4092-.0054a15.6405,15.6405,0,1,1,.4092.0054Zm-.02-29.3462a13.6713,13.6713,0,1,0,.3564.0044C1107.2705,106.4937,1107.1514,106.4922,1107.0332,106.4922Z" fill="#8e5d25"/><path d="M306.7842,180.8115a1,1,0,0,1-.3208-1.9477,5.3634,5.3634,0,0,0,2.6885-1.6763,3.5163,3.5163,0,0,0,.7446-1.91,1,1,0,1,1,1.9931.169,5.5328,5.5328,0,0,1-1.1562,2.9653,7.3737,7.3737,0,0,1-3.6284,2.3462A.9967.9967,0,0,1,306.7842,180.8115Zm2.1-10.4756a.9981.9981,0,0,1-.85-.4721c-.6128-.9854-1.2945-1.9263-1.82-2.6358-.6377-.8613-1.2549-1.7612-1.8355-2.6748a1,1,0,0,1,1.6885-1.0722c.5547.8735,1.145,1.7338,1.7544,2.5566.5478.74,1.2607,1.7236,1.9111,2.77a1,1,0,0,1-.8481,1.5278ZM302.1587,159.34a1.0011,1.0011,0,0,1-.9116-.5879,49.47,49.47,0,0,1-2.3057-6.1694,1,1,0,0,1,1.916-.5742,47.2876,47.2876,0,0,0,2.2119,5.9184,1.0007,1.0007,0,0,1-.9106,1.4131ZM298.45,147.0078a1,1,0,0,1-.9858-.8389,52.4161,52.4161,0,0,1-.6485-6.5473,1.0008,1.0008,0,0,1,.9639-1.0352.9815.9815,0,0,1,1.0351.9639,50.3666,50.3666,0,0,0,.6231,6.2964,1,1,0,0,1-.8257,1.1479A1.0209,1.0209,0,0,1,298.45,147.0078Zm-42.7363-5.895-.7251-.0015a1,1,0,0,1,.0039-2h.0039l.7173.0015c1.8886,0,3.8095-.0254,5.709-.0752a.9891.9891,0,0,1,1.0258.9731.9992.9992,0,0,1-.9731,1.0259C259.5586,141.0874,257.62,141.1128,255.7139,141.1128Zm-7.1773-.1187-.0337,0c-2.1513-.0713-4.3315-.1763-6.479-.3121a1,1,0,0,1,.126-1.9961c2.1279.1343,4.2876.2383,6.4194.3091a1,1,0,0,1-.0327,2Zm19.3628-.2236a1,1,0,0,1-.0552-1.9985c2.1294-.12,4.2867-.2735,6.4107-.4561a.984.984,0,0,1,1.082.91,1,1,0,0,1-.91,1.082c-2.1441.1846-4.3208.34-6.47.4609C267.9375,140.77,267.9185,140.7705,267.8994,140.7705Zm-32.2485-.59c-.0308,0-.0625-.0015-.0943-.0044-2.1494-.2007-4.3193-.4361-6.4482-.6992a1,1,0,0,1,.2451-1.9854c2.11.2612,4.2593.4941,6.39.6934a1,1,0,0,1-.0923,1.9956Zm45.1133-.52a1,1,0,0,1-.1138-1.9931c2.125-.2471,4.269-.5288,6.3721-.8374a1,1,0,0,1,.29,1.9785c-2.1226.3115-4.2866.5962-6.4316.8452A.9387.9387,0,0,1,280.7642,139.6611Zm-57.9224-1.102a1.044,1.044,0,0,1-.1729-.0147,64.8922,64.8922,0,0,1-6.4-1.4218,1,1,0,0,1,.54-1.9258,62.7852,62.7852,0,0,0,6.2036,1.3769,1,1,0,0,1-.1709,1.9854Zm70.6982-.7715a1,1,0,0,1-.1738-1.9849c2.103-.373,4.2261-.7822,6.3106-1.2173a1,1,0,0,1,.4082,1.9581c-2.104.4389-4.2471.852-6.3692,1.229A1.0352,1.0352,0,0,1,293.54,137.7876Zm12.6363-2.6538a1,1,0,0,1-.2471-1.9692,52.4889,52.4889,0,0,0,6.0435-1.8912,1,1,0,1,1,.7255,1.8633,54.2371,54.2371,0,0,1-6.2739,1.9654A.9942.9942,0,0,1,306.1763,135.1338Zm-95.7012-.1734a.9915.9915,0,0,1-.4189-.0922,30.372,30.372,0,0,1-5.7183-3.419,1,1,0,0,1,1.2158-1.5879,28.37,28.37,0,0,0,5.3413,3.1914,1,1,0,0,1-.42,1.9077Zm87.519-.8242c-.03,0-.061-.0014-.0922-.0044a.9992.9992,0,0,1-.9043-1.0869,51.0023,51.0023,0,0,1,1.02-6.5024,1,1,0,1,1,1.9512.4375,49.1076,49.1076,0,0,0-.98,6.2475A1,1,0,0,1,297.9941,134.1362Zm20.09-3.8457a1,1,0,0,1-.5513-1.8349l.3711-.2491a20.0546,20.0546,0,0,0,4.1978-3.8413,1,1,0,0,1,1.5478,1.2666,22.0446,22.0446,0,0,1-4.6172,4.2261l-.3989.2676A.9939.9939,0,0,1,318.0845,130.2905Zm-17.2627-8.7173a1.0011,1.0011,0,0,1-.9375-1.3481,46.9253,46.9253,0,0,1,2.7178-6.0063,1,1,0,1,1,1.7587.9521,44.9261,44.9261,0,0,0-2.6015,5.7495A1,1,0,0,1,300.8218,121.5732Zm25.1767-1.1831a1.0013,1.0013,0,0,1-.9516-1.3076,12.7067,12.7067,0,0,0,.63-3.9043l-.0019-.1992a9.8643,9.8643,0,0,0-.1924-1.7632,1,1,0,0,1,1.9609-.3926,11.8733,11.8733,0,0,1,.2315,2.1187l.0019.2363a14.709,14.709,0,0,1-.727,4.5186A1.0011,1.0011,0,0,1,325.9985,120.39ZM307.02,110.3052a1,1,0,0,1-.771-1.6367,17.6181,17.6181,0,0,1,5.1724-4.4224,1,1,0,0,1,.9414,1.7646,15.6326,15.6326,0,0,0-4.5708,3.9312A.9992.9992,0,0,1,307.02,110.3052Zm16.5654-1.9834a.999.999,0,0,1-.7441-.3311,9.145,9.145,0,0,0-4.9062-2.93,1,1,0,1,1,.3906-1.9619,11.0058,11.0058,0,0,1,6.0029,3.5542,1,1,0,0,1-.7432,1.669Z" fill="#8e5d25"/><path d="M824.1211,181.5342a.9943.9943,0,0,1-.6411-.2329,39.0422,39.0422,0,0,0-5.1309-3.6338,1,1,0,1,1,1.02-1.7207,41.0736,41.0736,0,0,1,5.3945,3.82,1,1,0,0,1-.6421,1.7671Zm-11.0542-6.5635a.9918.9918,0,0,1-.3691-.0713,47.5164,47.5164,0,0,0-6.0176-1.9233,1,1,0,0,1,.4853-1.9405,49.5383,49.5383,0,0,1,6.2715,2.0054,1,1,0,0,1-.37,1.93Zm-12.48-3.1919a1.0443,1.0443,0,0,1-.1548-.0117,23.4564,23.4564,0,0,1-6.5019-1.7715,1,1,0,1,1,.8828-1.7949,21.671,21.671,0,0,0,5.9258,1.59,1,1,0,0,1-.1519,1.9883Zm-9.5615-6.7095c-.0244,0-.0493-.0009-.0742-.0024a1.0007,1.0007,0,0,1-.9243-1.0708,11.52,11.52,0,0,1,1.86-4.772c.28-.4892.5615-.979.813-1.4761a1,1,0,1,1,1.7842.9034c-.2666.5268-.564,1.0473-.8613,1.5664a9.9335,9.9335,0,0,0-1.6006,3.9248A1.0006,1.0006,0,0,1,791.0254,165.0693Zm3.21-12.1264a1,1,0,0,1-.9615-.7281,10.0012,10.0012,0,0,0-3.1748-4.8325,1,1,0,0,1,1.291-1.5273,12.0149,12.0149,0,0,1,3.8077,5.8149,1.0022,1.0022,0,0,1-.9624,1.273Zm-11.2564-7.4312a1,1,0,0,1-.2383-1.9712,8.6535,8.6535,0,0,1,2.0674-.25,1.0229,1.0229,0,0,1,1.0264,1,.978.978,0,0,1-.9737,1c-.0092,0-.0712,0-.0805-.001a6.6017,6.6017,0,0,0-1.5611.1929A1.0167,1.0167,0,0,1,782.979,145.5117Z" fill="#8e5d25"/><path d="M831.6709,181.36a1,1,0,0,1-.8428-1.5367c1.0718-1.6855,2.1675-3.3408,3.2569-4.9209a1,1,0,0,1,1.6464,1.1358c-1.0752,1.5591-2.1572,3.1938-3.2158,4.8584A.9985.9985,0,0,1,831.6709,181.36Zm7.0195-10.1177a1,1,0,0,1-.7949-1.6055c1.3213-1.7378,2.689-3.4458,4.0645-5.0762a1,1,0,0,1,1.5283,1.29c-1.3535,1.6045-2.7,3.2856-4.001,4.9971A1,1,0,0,1,838.69,171.2422Zm8.3208-9.8584a1,1,0,0,1-.73-1.6831c1.4449-1.5445,2.98-3.1035,4.56-4.6343a1,1,0,1,1,1.3916,1.4365c-1.5576,1.5083-3.0688,3.044-4.4917,4.564A.9972.9972,0,0,1,847.0112,161.3838Zm9.2583-8.9859a1,1,0,0,1-.6655-1.7465c1.5439-1.375,3.1523-2.7588,4.9165-4.2305a1,1,0,1,1,1.2813,1.5361c-1.7476,1.4576-3.34,2.8272-4.8677,4.1875A.9949.9949,0,0,1,856.27,152.3979Zm9.897-8.2841a1,1,0,0,1-.624-1.7818q2.4675-1.9672,5.0835-3.997a1,1,0,1,1,1.2275,1.5791q-2.61,2.0288-5.0639,3.9814A.9952.9952,0,0,1,866.1665,144.1138Zm10.1807-7.9351a1,1,0,0,1-.61-1.7925l1.7114-1.3164c1.042-.8008,2.2637-1.6372,3.63-2.4848a1,1,0,1,1,1.0547,1.6992c-1.31.813-2.4761,1.6108-3.4658,2.3716l-1.7105,1.3154A.9965.9965,0,0,1,876.3472,136.1787Zm10.9052-6.8833a1,1,0,0,1-.45-1.8935c1.9453-.9761,3.9458-1.8882,5.9463-2.71a1,1,0,1,1,.7608,1.85c-1.9546.8037-3.9092,1.6944-5.81,2.648A.9977.9977,0,0,1,887.2524,129.2954Zm11.9483-4.8789a1,1,0,0,1-.2949-1.9561,40.286,40.286,0,0,1,6.4506-1.4956,1,1,0,0,1,.2637,1.9825,38.2574,38.2574,0,0,0-6.1235,1.4243A1.0051,1.0051,0,0,1,899.2007,124.4165Z" fill="#8e5d25"/><path d="M1041.373,99.6245h-6.457a1,1,0,0,1,0-2h6.457a1,1,0,0,1,0,2Zm-12.914,0h-6.457a1,1,0,0,1,0-2h6.457a1,1,0,0,1,0,2Zm-12.9141,0h-3.3984a1,1,0,0,1-.8662-.5l-1.5293-2.6489a1,1,0,1,1,1.7324-1l1.24,2.1489h2.8213a1,1,0,0,1,0,2ZM1045.5635,95.7a1,1,0,0,1-.8653-1.5l3.2286-5.5923a1,1,0,0,1,1.7324,1L1046.4307,95.2A1,1,0,0,1,1045.5635,95.7ZM1007.39,91.3833a1,1,0,0,1-.8671-.5l-3.23-5.5918a1,1,0,0,1,1.7324-1l3.23,5.5918a1.0005,1.0005,0,0,1-.8653,1.5Zm44.6309-6.8672a1,1,0,0,1-.8652-1.5l3.2285-5.5923a1,1,0,1,1,1.7324,1l-3.2285,5.5923A1,1,0,0,1,1052.0205,84.5161Zm-51.0889-4.3169a1,1,0,0,1-.8671-.5l-3.2286-5.5918a1,1,0,0,1,1.7325-1l3.2285,5.5918a1,1,0,0,1-.8653,1.5Zm57.5459-6.8672a1,1,0,0,1-.8652-1.5l.1084-.187-2.5439-4.4053a1,1,0,1,1,1.7324-1l2.832,4.9053a1,1,0,0,1,0,1l-.3965.687A1,1,0,0,1,1058.4775,73.332Zm-59.8134-4.3164a1,1,0,0,1-.8653-1.5l3.2285-5.5923a1,1,0,0,1,1.7325,1l-3.2286,5.5923A1,1,0,0,1,998.6641,69.0156Zm54.1513-6.8681a1,1,0,0,1-.8672-.5l-3.2285-5.5918a1,1,0,1,1,1.7324-1l3.2286,5.5918a1,1,0,0,1-.8653,1.5Zm-47.6943-4.316a1,1,0,0,1-.8652-1.5l3.23-5.5922a1,1,0,1,1,1.7324,1l-3.23,5.5922A1,1,0,0,1,1005.1211,57.8315Zm41.2373-6.8681a1,1,0,0,1-.8672-.5l-2.7695-4.7974h-5.88a1,1,0,0,1,0-2h6.457a1,1,0,0,1,.8662.5l3.0586,5.2974a1,1,0,0,1-.8652,1.5Zm-34.7793-4.3159a1,1,0,0,1-.8652-1.5l.5664-.9815a1,1,0,0,1,.8662-.5h5.3242a1,1,0,0,1,0,2h-4.7471l-.2773.4815A1,1,0,0,1,1011.5791,46.6475Zm18.8057-.9815h-6.4571a1,1,0,0,1,0-2h6.4571a1,1,0,0,1,0,2Z" fill="#8e5d25"/><path d="M107.03,46.39A39.3,39.3,0,0,0,72.064,90.2308a40.68,40.68,0,0,0,44.2517,35.7439,39.3035,39.3035,0,0,0,34.9678-43.8436A40.68,40.68,0,0,0,107.03,46.39ZM76.9451,89.7318a34.87,34.87,0,0,1,1.351-14.5052l21.8858,43.9028A35.76,35.76,0,0,1,76.9451,89.7318Zm38.8,31.3393a34.8746,34.8746,0,0,1-9.9764-.4185L112.6389,89.17l14.1033,28.2882a3.5207,3.5207,0,0,0,.3044.4565A34.4163,34.4163,0,0,1,115.7447,121.0711Zm-1.1914-51.7385c2.0764-.3221,3.9345-.7364,3.9345-.7364a1.454,1.454,0,0,0-.5575-2.853s-5.5736,1.0186-9.2048,1.39c-3.4129.349-9.1979.4917-9.1979.4917a1.4507,1.4507,0,0,0,.1149,2.8983s1.7957.04,3.68-.0422l7.1484,14.34-4.9287,23.6754L88.4876,71.9976c2.0789-.3223,3.9345-.7363,3.9345-.7363a1.4541,1.4541,0,0,0-.5573-2.8531s-5.5738,1.0186-9.205,1.39c-.6511.0666-1.4205.1281-2.24.1852A34.2449,34.2449,0,0,1,107.6,51.2925a35.1452,35.1452,0,0,1,24.5205,6.763c-.15.0067-.2983.0024-.453.0182a5.9618,5.9618,0,0,0-5.1079,6.7885c.3355,2.8756,2.2693,5.138,4.3652,7.8338a18.7886,18.7886,0,0,1,3.9861,9.3281q.5226,4.4778-1.3266,11.5512l-2.1081,11.98Zm25.64-3.0044a35.47,35.47,0,0,1,6.2052,16.3024A34.557,34.557,0,0,1,132.65,114.5515l7.0121-31.8941A33.07,33.07,0,0,0,140.846,69.892,27.0721,27.0721,0,0,0,140.1935,66.3282Z" fill="#F0C99A"/><path d="M111.6738,127.1821a40.9717,40.9717,0,0,1-4.6919-81.67h0a40.97,40.97,0,1,1,4.6919,81.67Zm-4.4614-79.6836a38.97,38.97,0,0,0,4.4629,77.6836,39.31,39.31,0,0,0,4.521-.2617,38.9707,38.9707,0,1,0-8.9839-77.4219Zm4.4941,74.7559a36.1193,36.1193,0,0,1-6.1367-.5259.9989.9989,0,0,1-.8066-1.2l6.93-31.561a1,1,0,0,1,1.87-.2349l14.1094,28.0737a2.5266,2.5266,0,0,0,.2.2867,1,1,0,0,1-.3506,1.5136,36.022,36.022,0,0,1-11.6616,3.4073h0A36.0653,36.0653,0,0,1,111.7065,122.2544Zm4.0386-1.2334h0Zm-8.8008-1.1011a34.13,34.13,0,0,0,8.6856.1079h0a34.0253,34.0253,0,0,0,10.0366-2.7607L113.042,92.1494Zm-6.8051.3794a.9914.9914,0,0,1-.33-.0561A35.8207,35.8207,0,0,1,75.877,90.36h0A35.7407,35.7407,0,0,1,77.2891,75.43a1,1,0,0,1,1.8476-.1494l21.896,43.57a1,1,0,0,1-.8935,1.4492ZM77.8633,90.13A33.8031,33.8031,0,0,0,98.0742,117.418L78.519,78.5054A33.7571,33.7571,0,0,0,77.8633,90.13Zm54.8447,25.1377a1,1,0,0,1-.9766-1.2158l7.0723-31.9742A32.2436,32.2436,0,0,0,139.99,69.6338a26.0471,26.0471,0,0,0-.6255-3.42,1,1,0,0,1,1.7842-.8262,36.0359,36.0359,0,0,1-7.8413,49.68A.9987.9987,0,0,1,132.708,115.2676Zm9.4-44.4234a35.1041,35.1041,0,0,1-1.3628,11.7115l-6.4389,29.1167a34.0329,34.0329,0,0,0,7.8017-40.8282Zm-36.58,38.752a1,1,0,0,1-.9043-.5742L87.564,72.7847a1,1,0,0,1,.7387-1.4121c2.03-.3414,3.8643-.7735,3.8828-.7779a.4246.4246,0,0,0,.3628-.55.3927.3927,0,0,0-.5146-.3359c-.2109.0415-5.6528,1.105-9.292,1.5268-.6621.0772-1.4453.15-2.2793.22a1,1,0,0,1-.9756-1.4473A36.072,36.072,0,0,1,132.8335,57.001a1,1,0,0,1-.5278,1.8086l-.1827.0078c-.07.0024-.1416.0039-.2143.0122a4.6629,4.6629,0,0,0-3.2891,1.9639,5.5021,5.5021,0,0,0-.9648,3.7836c.2744,2.3619,1.8481,4.3467,3.6709,6.6451l.49.62a19.3711,19.3711,0,0,1,4.1939,9.77c.3579,3.0855-.1036,7.1-1.3711,11.9326l-2.1114,11.9234a1,1,0,0,1-1.89.251L113.71,69.7549a1,1,0,0,1,.7387-1.4121c2.0245-.3408,3.8648-.7735,3.8833-.7779a.424.424,0,0,0,.3628-.5493.3929.3929,0,0,0-.5151-.3364c-.2109.0415-5.6523,1.105-9.292,1.5269-3.4224.3964-9.064.6176-9.3022.6264a.4183.4183,0,0,0-.4014.501c.0239.4194.313.4038.4185.3965.01-.0005.0463-.001.1054,0,.417,0,1.978-.002,3.585-.0943a1.0111,1.0111,0,0,1,.9507.5494l7.1513,14.2309a1,1,0,0,1,.085.6543l-4.9722,23.731a.9988.9988,0,0,1-.8618.7881A1.0592,1.0592,0,0,1,105.5283,109.5962Zm-15.6-36.4834L105.1621,105.47l4.2886-20.4677L102.749,71.666c-1.6357.0723-3.0327.062-3.0986.0625a2.3383,2.3383,0,0,1-2.4634-2.2827A2.4125,2.4125,0,0,1,99.49,66.835c.0757-.003,5.8218-.2281,9.167-.6153,3.5625-.4131,9.1011-1.4956,9.1568-1.5068a2.3816,2.3816,0,0,1,2.84,1.8979,2.4085,2.4085,0,0,1-1.8608,2.9c-.062.0142-1.2134.2852-2.7183.5713l15.0332,31.938,1.5791-8.9048c1.2217-4.67,1.6656-8.4365,1.3369-11.2734a17.5357,17.5357,0,0,0-3.7983-8.7886l-.4668-.5889c-1.9287-2.4321-3.75-4.7294-4.09-7.6572a7.5233,7.5233,0,0,1,1.3227-5.1753,6.711,6.711,0,0,1,2.7866-2.28A34.072,34.072,0,0,0,82.144,69.29q.189-.02.3672-.0405c3.5606-.4131,9.1011-1.4956,9.1568-1.5068a2.4488,2.4488,0,0,1,.979,4.7978C92.585,72.5552,91.4351,72.8262,89.9287,73.1128Z" fill="#8e5d25"/></svg>