<svg xmlns="http://www.w3.org/2000/svg" viewBox="0 0 32 16"><g id="b1c97ad6-818f-4755-ba93-6eafd28c8412" data-name="g3047"><path id="bf06f165-322d-47b5-9d1a-33a867d760b6" data-name="path3025" d="M0,8.009V23.991H32V8.009Z" transform="translate(0 -8)" fill="#00247d"/><path id="b717f764-997d-4331-9809-1c359a945c37" data-name="path3016" d="M0,8.009V9.8L12.417,16,0,22.2v1.789H3.587L16,17.8l12.413,6.193H32V22.2L19.583,16,32,9.8V8.009H28.413L16,14.2,3.587,8.009Z" transform="translate(0 -8)" fill="#fff"/><path id="ff1ab1a7-d623-4705-957f-345b9b63b531" data-name="path3043" d="M0,9.214l14.8,7.379L0,24H2.389l14.782-7.425L32,24V22.8L17.171,15.4,32,8H29.533L14.8,15.384,0,8Z" transform="translate(0 -8)" fill="#cf142b"/><path id="a4607914-213a-49fc-93d5-284a511a9fec" data-name="path3012" d="M13.334,8.009v5.327H0v5.328H13.334v5.327h5.332V18.664H32V13.336H18.666V8.009Z" transform="translate(0 -8)" fill="#fff"/><path id="aa05e7be-5375-406c-ba9b-75d148128258" data-name="path3014" d="M14.4,8.009V14.4H0v3.2H14.4v6.393h3.2V17.6H32V14.4H17.6V8.009Z" transform="translate(0 -8)" fill="#cf142b"/></g></svg>