<svg id="a8399bff-18b9-45b8-86af-75b0c8052704" data-name="Layer 1" xmlns="http://www.w3.org/2000/svg" viewBox="0 0 52 33.25"><path d="M51,16.62V32.25H1V16.62Z" fill="#fff"/><path d="M1,1V16.62H51V1ZM6.78,12.72a6.14,6.14,0,0,1,0-7.81L7.72,4a6.55,6.55,0,0,1,3.75-1.09h.78A6.81,6.81,0,0,1,13,3a7.47,7.47,0,0,0-3.75,2,4.88,4.88,0,0,0-1.4,4.07,5.58,5.58,0,0,0,5.31,5.31A6,6,0,0,1,6.78,12.72Zm5.16-3.91-.78-.47-.78.47.31-.94-.78-.46h.93l.32-.94.31.94h.94L11.62,8Zm.93,2.82.32.93-.78-.62-.79.62.32-.93-.78-.47h.93l.32-.94.31.94h.94ZM14.28,6l-.78.47.31-.94L13,5.06H14l.31-.94.31.94h.94l-.78.47.31.94Zm2.81,6.56-.78-.62-.78.62.31-.93-.78-.47H16l.31-.94.31.94h.94l-.78.62Zm1.25-3.75-.78-.62-.78.62.31-.94-.78-.46h.94l.31-.94.32.94h.93L18,8Z" fill="#d13038"/><path d="M51,1V32.25H1V1H51m1-1H0V33.25H52V0Z" fill="#ddd"/></svg>