<svg id="ee04be8d-16d7-495c-94e6-a8f11495cac0" xmlns="http://www.w3.org/2000/svg" viewBox="0 0 18 12"><rect width="18" height="12" fill="#034ea2"/><path d="M9,9" transform="translate(0 -3)" fill="#034ea2"/><polygon points="8.62 2.62 9 2.34 9.38 2.62 9.23 2.17 9.62 1.89 9.14 1.89 9 1.44 8.85 1.89 8.38 1.89 8.76 2.17 8.62 2.62" fill="#fff100"/><polygon points="6.65 3.14 7.03 2.87 7.41 3.14 7.27 2.69 7.65 2.42 7.18 2.42 7.03 1.96 6.88 2.42 6.41 2.42 6.79 2.69 6.65 3.14" fill="#fff100"/><polygon points="5.59 3.4 5.45 3.86 4.97 3.86 5.36 4.14 5.21 4.58 5.59 4.31 5.97 4.58 5.83 4.14 6.21 3.86 5.74 3.86 5.59 3.4" fill="#fff100"/><polygon points="5.07 6.27 5.44 6.55 5.3 6.1 5.69 5.82 5.21 5.82 5.07 5.37 4.92 5.82 4.44 5.82 4.83 6.1 4.68 6.55 5.07 6.27" fill="#fff100"/><polygon points="5.74 7.79 5.59 7.34 5.45 7.79 4.97 7.79 5.36 8.07 5.21 8.52 5.59 8.24 5.97 8.52 5.83 8.07 6.21 7.79 5.74 7.79" fill="#fff100"/><polygon points="7.18 9.23 7.03 8.78 6.89 9.23 6.41 9.23 6.8 9.51 6.65 9.96 7.03 9.68 7.41 9.96 7.27 9.51 7.65 9.23 7.18 9.23" fill="#fff100"/><polygon points="9.14 9.75 9 9.3 8.85 9.75 8.38 9.75 8.76 10.03 8.62 10.48 9 10.2 9.38 10.48 9.23 10.03 9.62 9.75 9.14 9.75" fill="#fff100"/><polygon points="11.11 9.23 10.96 8.78 10.81 9.23 10.34 9.23 10.72 9.51 10.58 9.96 10.96 9.68 11.34 9.96 11.2 9.51 11.58 9.23 11.11 9.23" fill="#fff100"/><polygon points="12.55 7.79 12.4 7.34 12.26 7.79 11.78 7.79 12.17 8.07 12.02 8.52 12.4 8.24 12.78 8.52 12.64 8.07 13.02 7.79 12.55 7.79" fill="#fff100"/><polygon points="13.54 5.82 13.07 5.82 12.92 5.36 12.78 5.82 12.3 5.82 12.69 6.09 12.54 6.54 12.92 6.26 13.3 6.54 13.16 6.09 13.54 5.82" fill="#fff100"/><polygon points="12.02 4.58 12.4 4.3 12.78 4.58 12.64 4.13 13.02 3.85 12.55 3.85 12.4 3.4 12.26 3.85 11.78 3.85 12.17 4.13 12.02 4.58" fill="#fff100"/><polygon points="10.96 1.96 10.82 2.42 10.35 2.42 10.73 2.69 10.59 3.14 10.97 2.87 11.35 3.14 11.2 2.69 11.59 2.42 11.11 2.42 10.96 1.96" fill="#fff100"/></svg>