<svg xmlns="http://www.w3.org/2000/svg" viewBox="0 0 32 31.9"><defs><radialGradient id="radial-gradient" cx="-143.44" cy="-512.7" r="29.85" gradientTransform="translate(149.1 518.3)" gradientUnits="userSpaceOnUse"><stop offset="0" stop-color="#9dd5f6"/><stop offset="0.07" stop-color="#98d3f5"/><stop offset="0.16" stop-color="#89cef3"/><stop offset="0.25" stop-color="#70c6ef"/><stop offset="0.35" stop-color="#4ebbea"/><stop offset="0.45" stop-color="#23ade3"/><stop offset="0.5" stop-color="#0da6e0"/><stop offset="1" stop-color="#2e77bc"/></radialGradient></defs><path d="M31.8,0H0V31.9H31.8V21.4a1.2,1.2,0,0,0,.2-.7,1.1,1.1,0,0,0-.2-.7" fill="url(#radial-gradient)"/><path d="M2.9,13.8l-.6-1.5-.6,1.5m14.7-.6H14.8v-.8h1.5a.3.3,0,0,1,.2.3A.4.4,0,0,1,16.3,13.2Zm7.7.6-.6-1.5-.6,1.5ZM9.7,15.4H8.7V12.5L7.4,15.4H6.7L5.4,12.5v2.9H3.5l-.3-.8H1.3l-.3.8H0l1.6-3.7H2.9l1.5,3.5V11.7H5.9l1.2,2.5,1.1-2.5H9.7v3.7Zm3.7,0h-3V11.7h3v.8H11.2v.7h2v.8h-2v.7h2.1v.8Zm4.2-2.7a1.1,1.1,0,0,1-.6,1l.4.3a1.1,1.1,0,0,1,.1.7v.7h-.9V15a1.1,1.1,0,0,0-.1-.7l-.7-.2h-1v1.4h-.9V11.7H16a2.1,2.1,0,0,1,1.1.2A.9.9,0,0,1,17.5,12.7Zm1.4,2.7H18V11.7h.9Zm10.6,0H28.3l-1.7-2.8v2.8H24.8l-.3-.8H22.5l-.3.8h-1a1.9,1.9,0,0,1-1.3-.4,1.9,1.9,0,0,1-.5-1.4,2,2,0,0,1,.5-1.5,1.8,1.8,0,0,1,1.4-.4h.9v.8h-.8a.9.9,0,0,0-.7.2,1.2,1.2,0,0,0-.3.8,1.3,1.3,0,0,0,.2.9.9.9,0,0,0,.6.2h.4l1.3-2.9h1.3l1.5,3.5V11.7H27l1.6,2.6V11.7h.9v3.7ZM0,16.2H1.5l.3-.8h.8l.3.8H6v-.6l.3.6H7.8l.3-.6v.6h7.5V14.8h.1c.1,0,.1,0,.1.2v1.2h3.9v-.3a3.1,3.1,0,0,0,1.4.3h1.6l.3-.8h.8l.3.8h3.1v-.8l.5.8h2.5V10.9H27.8v.6l-.3-.6H24.9v.6l-.3-.6H21.2a3.1,3.1,0,0,0-1.5.3v-.3H17.3v.3a1.5,1.5,0,0,0-1-.3H7.6L7,12.3l-.6-1.3H3.7v.6l-.3-.6H1.1L0,13.4v2.7Z" fill="#fff"/><path d="M31.8,18.9h-2a.3.3,0,0,0-.1.3.3.3,0,0,0,.2.3h.8a1.4,1.4,0,0,1,1,.3h.1m0,1.4a1.4,1.4,0,0,1-1.2.5H28.9v-.8H31a.3.3,0,0,0,.1-.2.3.3,0,0,0-.1-.2h-.3c-.8,0-1.9,0-1.9-1.2s.3-1.1,1.3-1.1h1.8v-.7H30.2a1.9,1.9,0,0,0-1.1.3v-.3H26.6a1.7,1.7,0,0,0-1.1.3v-.3H21.2v.3a2.3,2.3,0,0,0-1.2-.3H17.1v.3a2,2,0,0,0-1.3-.3H12.6l-.7.8-.7-.8H6.3v5.2h4.7l.8-.8.7.8h2.9V21.4h.3a3,3,0,0,0,1.2-.2v1.4h2.4V21.2h.1c.1,0,.2,0,.2.2v1.2H27a2.1,2.1,0,0,0,1.2-.3v.3h2.3a3.1,3.1,0,0,0,1.3-.2v-1Zm-3.6-1.5a1,1,0,0,1,.3.8c0,.8-.5,1.2-1.4,1.2H25.4v-.8h2.1a.3.3,0,0,0,.1-.2.3.3,0,0,0-.1-.2h-.3c-.8,0-1.9,0-1.9-1.2s.3-1.1,1.3-1.1h1.8v.8h-2a.3.3,0,0,0,.1.5h.8A1.4,1.4,0,0,1,28.2,19.9Zm-8.1-.2H18.6v-.8h1.5a.4.4,0,0,1,.2.3A.4.4,0,0,1,20.2,19.7Zm.5.5.4.3a1.1,1.1,0,0,1,.1.7v.7h-.9v-.5c0-.2,0-.6-.1-.7a.9.9,0,0,0-.7-.2h-1v1.4h-.9V18.1h2.1a2.2,2.2,0,0,1,1.1.2.9.9,0,0,1,.5.8A1,1,0,0,1,20.7,20.1Zm1.1-2h3v.8H22.7v.7h2v.8h-2v.7h2.1v.8h-3Zm-6,1.7H14.7v-1h1.2c.3,0,.5.1.5.5S16.2,19.9,15.8,19.9Zm-2,1.7L12.4,20l1.4-1.5Zm-3.5-.4H8v-.7h2v-.8H8v-.7h2.2l1,1.1Zm7.1-1.7c0,1-.8,1.3-1.6,1.3H14.7v1.3H12.9l-1.1-1.2-1.1,1.2H7.1V18.1h3.6l1.1,1.2L13,18.1h2.9C16.5,18.1,17.3,18.3,17.3,19.4Z" fill="#fff"/></svg>