<svg xmlns="http://www.w3.org/2000/svg" viewBox="0 0 193.571 31.722"><path d="M63.979,24.467a8.456,8.456,0,0,1-8.31-8.587,8.506,8.506,0,0,1,8.31-8.651,7.918,7.918,0,0,1,7.732,5.49h-2.93a5.259,5.259,0,0,0-4.8-2.909A5.87,5.87,0,0,0,58.4,15.88a5.811,5.811,0,0,0,5.575,6,5.185,5.185,0,0,0,4.8-2.908h2.93A7.9,7.9,0,0,1,63.979,24.467ZM90.21,15.908a8.348,8.348,0,1,1-16.69,0,8.351,8.351,0,1,1,16.69,0Zm-2.739,0a5.613,5.613,0,1,0-11.183,0,5.6,5.6,0,1,0,11.183,0Zm21.394-.1a8.336,8.336,0,1,1-16.659,0,8.328,8.328,0,0,1,8.28-8.582A7.327,7.327,0,0,1,106.219,10V1.892h2.646v13.92Zm-8.314-6.1a5.841,5.841,0,0,0-5.606,6.1,5.864,5.864,0,0,0,5.606,6.169,5.945,5.945,0,0,0,5.606-6.169A5.882,5.882,0,0,0,100.551,9.716Zm27.066,9.255a7.728,7.728,0,0,1-7.83,5.5,8.455,8.455,0,0,1-8.5-8.587,8.512,8.512,0,0,1,8.345-8.651c4.286,0,8.407,3.509,8.376,9.354H114.055a5.8,5.8,0,0,0,5.733,5.423,5.109,5.109,0,0,0,4.93-3.035Zm-2.643-4.82a5.691,5.691,0,0,0-5.346-4.468,5.765,5.765,0,0,0-5.415,4.467h10.761ZM146.5,24.077h-2.641V21.53a7.08,7.08,0,0,1-5.735,2.966,8.353,8.353,0,0,1-8.279-8.616,8.334,8.334,0,1,1,16.655,0v8.2Zm-8.31-14.361a5.88,5.88,0,0,0-5.606,6.164,5.822,5.822,0,0,0,5.606,6.1,5.883,5.883,0,0,0,5.606-6.1A5.943,5.943,0,0,0,138.189,9.716Zm19.49,14.751a8.385,8.385,0,0,1-8.344-8.656V1.891h2.643V10a7.383,7.383,0,0,1,5.737-2.771,8.305,8.305,0,0,1,8.276,8.582,8.393,8.393,0,0,1-8.311,8.656Zm0-14.751a5.88,5.88,0,0,0-5.6,6.1,5.943,5.943,0,0,0,5.6,6.169c3.063,0,5.575-2.688,5.575-6.169a5.835,5.835,0,0,0-5.575-6.1ZM168.8,1.891h2.707V17.984c0,2.908,1.805,3.639,3.868,3.546v2.547c-3.9.454-6.575-1.815-6.575-6V1.89Zm24.385,17.08a7.729,7.729,0,0,1-7.829,5.5,8.456,8.456,0,0,1-8.5-8.587A8.512,8.512,0,0,1,185.2,7.229c4.281,0,8.407,3.509,8.376,9.354H179.62a5.8,5.8,0,0,0,5.735,5.423,5.108,5.108,0,0,0,4.928-3.035Zm-2.643-4.82A5.688,5.688,0,0,0,185.2,9.683a5.761,5.761,0,0,0-5.415,4.467h10.761ZM33.007,0a15.992,15.992,0,0,0-11.44,4.773,4.04,4.04,0,0,0-.1,5.587l.105.1A4.108,4.108,0,0,0,24.5,11.683h.008a4.113,4.113,0,0,0,3.029-1.323,7.731,7.731,0,1,1,1.632,12.228,4.837,4.837,0,0,1-1.153,4.919,16.941,16.941,0,0,1-2.74,2.25,16.04,16.04,0,0,0,23.732-13.9A15.95,15.95,0,0,0,33.007,0ZM27.539,21.363l-.105-.1a4.108,4.108,0,0,0-2.927-1.223H24.5a4.111,4.111,0,0,0-3.029,1.324A7.731,7.731,0,1,1,19.839,9.134a4.837,4.837,0,0,1,1.153-4.917,16.993,16.993,0,0,1,2.74-2.25A16.039,16.039,0,0,0,0,15.862,16.024,16.024,0,0,0,27.443,26.95a4.04,4.04,0,0,0,.1-5.586Z" fill="#36a9e1"/></svg>