<svg xmlns="http://www.w3.org/2000/svg" viewBox="0 0 128 128"><title>128x128</title><circle cx="76.774" cy="89.119" r="16.174" fill="#f9dac3"/><path d="M112.191,109.073H33.543a8.834,8.834,0,0,1-9.05-8.579v-54.3a8.834,8.834,0,0,1,9.05-8.579h78.648a8.835,8.835,0,0,1,9.051,8.579v54.3A8.834,8.834,0,0,1,112.191,109.073ZM33.543,40.613a5.836,5.836,0,0,0-6.05,5.579v54.3a5.836,5.836,0,0,0,6.05,5.579h78.648a5.836,5.836,0,0,0,6.051-5.579v-54.3a5.836,5.836,0,0,0-6.051-5.579Z" fill="#d45e2a"/><path d="M16.084,92.581a1.5,1.5,0,0,1-1.5-1.5v-54.3A8.835,8.835,0,0,1,23.635,28.2h78.648a1.5,1.5,0,0,1,0,3H23.635a5.836,5.836,0,0,0-6.051,5.579v54.3A1.5,1.5,0,0,1,16.084,92.581Z" fill="#d45e2a"/><path d="M6.749,83.689a1.5,1.5,0,0,1-1.5-1.5v-54.3a8.833,8.833,0,0,1,9.05-8.578H92.947a1.5,1.5,0,0,1,0,3H14.3a5.835,5.835,0,0,0-6.05,5.578v54.3A1.5,1.5,0,0,1,6.749,83.689Z" fill="#d45e2a"/><path d="M119.133,57.164H26.719a1.5,1.5,0,0,1,0-3h92.414a1.5,1.5,0,0,1,0,3Z" fill="#d45e2a"/><circle cx="36.396" cy="47.168" r="2.685" fill="#d45e2a"/><circle cx="44.45" cy="47.168" r="2.685" fill="#d45e2a"/><circle cx="52.504" cy="47.168" r="2.685" fill="#d45e2a"/><path d="M72.946,101.886a16.852,16.852,0,0,1-11.712-4.7,1.5,1.5,0,1,1,2.077-2.166A13.929,13.929,0,0,0,86.876,84.957a1.5,1.5,0,0,1,3,0A16.949,16.949,0,0,1,72.946,101.886Z" fill="#d45e2a"/><path d="M88.376,86.457a1.5,1.5,0,0,1-1.5-1.5,13.929,13.929,0,0,0-23.83-9.8,1.5,1.5,0,1,1-2.132-2.111A16.929,16.929,0,0,1,89.876,84.957,1.5,1.5,0,0,1,88.376,86.457Z" fill="#d45e2a"/><path d="M76.879,65.582h-8.47a1.5,1.5,0,0,1,0-3h8.47a1.5,1.5,0,1,1,0,3Z" fill="#d45e2a"/><path d="M72.644,71.027a1.5,1.5,0,0,1-1.5-1.5V64.082a1.5,1.5,0,0,1,3,0v5.445A1.5,1.5,0,0,1,72.644,71.027Z" fill="#d45e2a"/><path d="M74.554,84.636a1.5,1.5,0,0,1-1.06-2.561l5.49-5.49a1.5,1.5,0,0,1,2.121,2.121l-5.49,5.49A1.5,1.5,0,0,1,74.554,84.636Z" fill="#d45e2a"/><path d="M83.781,75.472a1.5,1.5,0,0,1-1.061-2.561l3.385-3.385a1.5,1.5,0,1,1,2.121,2.121l-3.385,3.385A1.494,1.494,0,0,1,83.781,75.472Z" fill="#d45e2a"/><path d="M89.042,73.941a1.5,1.5,0,0,1-1.061-.439l-3.568-3.569a1.5,1.5,0,0,1,2.121-2.121L90.1,71.381a1.5,1.5,0,0,1-1.061,2.56Z" fill="#d45e2a"/><path d="M63.467,80.348H54.693a1.5,1.5,0,0,1,0-3h8.774a1.5,1.5,0,0,1,0,3Z" fill="#d45e2a"/><path d="M63.467,92.935H54.693a1.5,1.5,0,1,1,0-3h8.774a1.5,1.5,0,0,1,0,3Z" fill="#d45e2a"/><path d="M65.516,86.641H56.743a1.5,1.5,0,0,1,0-3h8.773a1.5,1.5,0,0,1,0,3Z" fill="#d45e2a"/><path d="M72.877,89.117a3.889,3.889,0,1,1,3.89-3.888A3.893,3.893,0,0,1,72.877,89.117Zm0-4.778a.889.889,0,1,0,.89.89A.89.89,0,0,0,72.877,84.339Z" fill="#d45e2a"/></svg>