<svg xmlns="http://www.w3.org/2000/svg" viewBox="0 0 56 41"><path fill="#9A8774" d="M36,2A18,18,0,0,1,50.4,30.8l-.658.877.385,1.026,1.736,4.631-6.473-1.294-.677-.136-.616.312A17.821,17.821,0,0,1,36,38,18,18,0,0,1,36,2m0-2a20,20,0,1,0,9,38l10,2-3-8A20,20,0,0,0,36,0Z"></path><path fill="#9A8774" d="M25.1,36.756a20.228,20.228,0,0,1-1.662-1.2h0a20.228,20.228,0,0,0,1.662,1.2Z"></path><path fill="#9A8774" d="M20.958,37.377A12.666,12.666,0,0,1,14.75,39a12.62,12.62,0,0,1-5.736-1.26L8.4,37.428l-.677.136-3.847.769L4.822,35.8l.385-1.026L4.548,33.9A12.739,12.739,0,0,1,13.93,13.542c.2-.693.438-1.372.7-2.036A14.747,14.747,0,0,0,2.949,35.1L.737,41l7.375-1.475A14.624,14.624,0,0,0,14.75,41a14.667,14.667,0,0,0,7.885-2.3Q21.765,38.077,20.958,37.377Z"></path><path fill="#ffffff" d="M45.676,17.885,39,16.972l-2.958-5.889-2.957,5.889-6.677.913,4.9,4.645L30.042,29l5.916-3.069L41.873,29,40.69,22.53Zm-9.634,6.553-4.31,2.239.845-4.728-3.464-3.318,4.817-.663,2.112-4.314,2.113,4.314,4.817.663-3.549,3.318.845,4.728Z"></path><path fill="#9A8774" d="M36.042,11.083l-2.958,5.889-6.675.913,4.9,4.645L30.042,29l5.916-3.069L41.873,29,40.69,22.53l4.986-4.645L39,16.972l-2.958-5.889Zm-4.31,15.594.846-4.728-3.465-3.318,4.817-.663,2.112-4.314,2.113,4.314,4.817.663-3.55,3.318.846,4.728-4.226-2.239-4.31,2.239Z"></path><polygon fill="#ffffff" points="52 16.226 46.93 15.562 44.732 11 42.451 15.811 43.465 16.392 44.732 13.82 46.169 16.641 49.296 17.055 46.93 19.212 47.521 22.281 45.07 20.954 44.479 22.032 49.211 24.521 48.366 19.627 52 16.226"></polygon><polygon fill="#9A8774" points="44.732 11 42.451 15.811 43.465 16.392 44.732 13.82 46.169 16.641 49.296 17.055 46.93 19.212 47.521 22.281 45.07 20.954 44.479 22.032 49.211 24.521 48.366 19.627 52 16.226 46.93 15.562 44.732 11 44.732 11"></polygon><path fill="#ffffff" d="M23.845,22.281l.592-3.069L22.07,17.055l3.212-.414,1.352-2.821L27.9,16.392l1.1-.581L26.634,11l-2.2,4.562-5.071.664,3.719,3.4-.93,4.894,4.732-2.489L26.3,20.954Z"></path><polygon fill="#9A8774" points="26.634 11 24.437 15.562 19.366 16.226 23.084 19.627 22.155 24.521 26.887 22.032 26.296 20.954 23.845 22.281 24.437 19.212 22.07 17.055 25.282 16.641 26.634 13.82 27.901 16.392 29 15.811 26.634 11 26.634 11"></polygon><path fill="#ffffff" d="M13.025,21H6v2h7.2C13.116,22.341,13.054,21.675,13.025,21Z"></path><path fill="#9A8774" d="M13.025,21H6v2h7.2c-.086-.659-.148-1.325-.177-2Z"></path><path fill="#ffffff" d="M13.8,26H5v2h9.438C14.194,27.347,13.983,26.679,13.8,26Z"></path><path fill="#9A8774" d="M13.8,26H5v2h9.438c-.244-.653-.455-1.321-.639-2Z"></path><path fill="#ffffff" d="M15.807,31H7v2H17v-.056C16.572,32.317,16.172,31.669,15.807,31Z"></path><path fill="#9A8774" d="M15.807,31H7v2H17v-.056c-.428-.627-.828-1.275-1.193-1.944Z"></path></svg>