<svg xmlns="http://www.w3.org/2000/svg" viewBox="0 0 55.969 42"><path d="M2.816,27.994A2.521,2.521,0,0,1,2,26.344V4.885a2.769,2.769,0,0,1,.053-.531L19.812,18.713l.14.095a4.765,4.765,0,0,0,4.638.027l19.273-14.5A2.432,2.432,0,0,1,43.97,5v9h2V5a5.267,5.267,0,0,0-5-5h-36A5.085,5.085,0,0,0,1.364,1.491,4.732,4.732,0,0,0,0,4.9V26.324A4.433,4.433,0,0,0,1.388,29.4,5.116,5.116,0,0,0,4.969,31h21V29h-21A3.153,3.153,0,0,1,2.816,27.994ZM40.97,2a2.878,2.878,0,0,1,1.755.686L23.573,17.111A2.777,2.777,0,0,1,21,17.1L3.106,2.633A3.1,3.1,0,0,1,4.969,2Z" transform="translate(0)"></path><path d="M52.987,17H32.97a2.78,2.78,0,0,0-3,3V34a2.78,2.78,0,0,0,3,3h5v5l8-5h7a2.78,2.78,0,0,0,3-3V20A2.766,2.766,0,0,0,52.987,17Zm.982,17c0,.748-.252,1-1,1H45.4l-.486.3-4.94,3.087V35h-7c-.747,0-1-.252-1-1V20c0-.748.253-1,1-1H52.987c.743,0,.982.243.982,1Z" transform="translate(0)"></path><rect x="34.97" y="22" width="15.999" height="2"></rect><rect x="34.97" y="26" width="15.999" height="2"></rect><rect x="34.969" y="30" width="15.999" height="2"></rect></svg>