<svg id="a794c86b-18e3-4641-809e-0ca65f9037f4" xmlns="http://www.w3.org/2000/svg" viewBox="0 0 123 65"><rect width="123" height="65" fill="#fff"/><rect x="49" width="74" height="5" fill="#b22234"/><rect x="49" y="10" width="74" height="5" fill="#b22234"/><rect x="49" y="20" width="74" height="5" fill="#b22234"/><rect x="49" y="30" width="74" height="5" fill="#b22234"/><rect y="40" width="123" height="5" fill="#b22234"/><rect y="50" width="123" height="5" fill="#b22234"/><rect y="60" width="123" height="5" fill="#b22234"/><rect width="49" height="35" fill="#3c3b6e"/><polygon points="3.92 1.5 3.47 2.88 2.02 2.88 3.19 3.74 2.74 5.12 3.92 4.26 5.09 5.12 4.64 3.74 5.82 2.88 4.37 2.88 3.92 1.5" fill="#fff"/><polygon points="3.92 8.5 3.47 9.88 2.02 9.88 3.19 10.74 2.74 12.12 3.92 11.26 5.09 12.12 4.64 10.74 5.82 9.88 4.37 9.88 3.92 8.5" fill="#fff"/><polygon points="3.92 15.5 3.47 16.88 2.02 16.88 3.19 17.74 2.74 19.12 3.92 18.26 5.09 19.12 4.64 17.74 5.82 16.88 4.37 16.88 3.92 15.5" fill="#fff"/><polygon points="3.92 22.5 3.47 23.88 2.02 23.88 3.19 24.74 2.74 26.12 3.92 25.26 5.09 26.12 4.64 24.74 5.82 23.88 4.37 23.88 3.92 22.5" fill="#fff"/><polygon points="4.37 30.88 3.92 29.5 3.47 30.88 2.02 30.88 3.19 31.74 2.74 33.12 3.92 32.26 5.09 33.12 4.64 31.74 5.82 30.88 4.37 30.88" fill="#fff"/><polygon points="8.03 5 7.58 6.38 6.13 6.38 7.31 7.24 6.86 8.62 8.03 7.76 9.21 8.62 8.76 7.24 9.94 6.38 8.48 6.38 8.03 5" fill="#fff"/><polygon points="8.03 12 7.58 13.38 6.13 13.38 7.31 14.24 6.86 15.62 8.03 14.76 9.21 15.62 8.76 14.24 9.94 13.38 8.48 13.38 8.03 12" fill="#fff"/><polygon points="8.03 19 7.58 20.38 6.13 20.38 7.31 21.24 6.86 22.62 8.03 21.76 9.21 22.62 8.76 21.24 9.94 20.38 8.48 20.38 8.03 19" fill="#fff"/><polygon points="8.48 27.38 8.03 26 7.58 27.38 6.13 27.38 7.31 28.24 6.86 29.62 8.03 28.76 9.21 29.62 8.76 28.24 9.94 27.38 8.48 27.38" fill="#fff"/><polygon points="12.15 1.5 11.7 2.88 10.25 2.88 11.42 3.74 10.97 5.12 12.15 4.26 13.33 5.12 12.88 3.74 14.05 2.88 12.6 2.88 12.15 1.5" fill="#fff"/><polygon points="12.15 8.5 11.7 9.88 10.25 9.88 11.42 10.74 10.97 12.12 12.15 11.26 13.33 12.12 12.88 10.74 14.05 9.88 12.6 9.88 12.15 8.5" fill="#fff"/><polygon points="12.15 15.5 11.7 16.88 10.25 16.88 11.42 17.74 10.97 19.12 12.15 18.26 13.33 19.12 12.88 17.74 14.05 16.88 12.6 16.88 12.15 15.5" fill="#fff"/><polygon points="12.15 22.5 11.7 23.88 10.25 23.88 11.42 24.74 10.97 26.12 12.15 25.26 13.33 26.12 12.88 24.74 14.05 23.88 12.6 23.88 12.15 22.5" fill="#fff"/><polygon points="12.6 30.88 12.15 29.5 11.7 30.88 10.25 30.88 11.42 31.74 10.97 33.12 12.15 32.26 13.33 33.12 12.88 31.74 14.05 30.88 12.6 30.88" fill="#fff"/><polygon points="16.27 5 15.82 6.38 14.37 6.38 15.54 7.24 15.09 8.62 16.27 7.76 17.44 8.62 16.99 7.24 18.17 6.38 16.72 6.38 16.27 5" fill="#fff"/><polygon points="16.27 12 15.82 13.38 14.37 13.38 15.54 14.24 15.09 15.62 16.27 14.76 17.44 15.62 16.99 14.24 18.17 13.38 16.72 13.38 16.27 12" fill="#fff"/><polygon points="16.27 19 15.82 20.38 14.37 20.38 15.54 21.24 15.09 22.62 16.27 21.76 17.44 22.62 16.99 21.24 18.17 20.38 16.72 20.38 16.27 19" fill="#fff"/><polygon points="16.72 27.38 16.27 26 15.82 27.38 14.37 27.38 15.54 28.24 15.09 29.62 16.27 28.76 17.44 29.62 16.99 28.24 18.17 27.38 16.72 27.38" fill="#fff"/><polygon points="20.38 1.5 19.93 2.88 18.48 2.88 19.66 3.74 19.21 5.12 20.38 4.26 21.56 5.12 21.11 3.74 22.29 2.88 20.83 2.88 20.38 1.5" fill="#fff"/><polygon points="20.38 8.5 19.93 9.88 18.48 9.88 19.66 10.74 19.21 12.12 20.38 11.26 21.56 12.12 21.11 10.74 22.29 9.88 20.83 9.88 20.38 8.5" fill="#fff"/><polygon points="20.38 15.5 19.93 16.88 18.48 16.88 19.66 17.74 19.21 19.12 20.38 18.26 21.56 19.12 21.11 17.74 22.29 16.88 20.83 16.88 20.38 15.5" fill="#fff"/><polygon points="20.38 22.5 19.93 23.88 18.48 23.88 19.66 24.74 19.21 26.12 20.38 25.26 21.56 26.12 21.11 24.74 22.29 23.88 20.83 23.88 20.38 22.5" fill="#fff"/><polygon points="20.83 30.88 20.38 29.5 19.93 30.88 18.48 30.88 19.66 31.74 19.21 33.12 20.38 32.26 21.56 33.12 21.11 31.74 22.29 30.88 20.83 30.88" fill="#fff"/><polygon points="24.5 5 24.05 6.38 22.6 6.38 23.77 7.24 23.32 8.62 24.5 7.76 25.68 8.62 25.23 7.24 26.4 6.38 24.95 6.38 24.5 5" fill="#fff"/><polygon points="24.5 12 24.05 13.38 22.6 13.38 23.77 14.24 23.32 15.62 24.5 14.76 25.68 15.62 25.23 14.24 26.4 13.38 24.95 13.38 24.5 12" fill="#fff"/><polygon points="24.5 19 24.05 20.38 22.6 20.38 23.77 21.24 23.32 22.62 24.5 21.76 25.68 22.62 25.23 21.24 26.4 20.38 24.95 20.38 24.5 19" fill="#fff"/><polygon points="24.95 27.38 24.5 26 24.05 27.38 22.6 27.38 23.77 28.24 23.32 29.62 24.5 28.76 25.68 29.62 25.23 28.24 26.4 27.38 24.95 27.38" fill="#fff"/><polygon points="28.62 1.5 28.17 2.88 26.71 2.88 27.89 3.74 27.44 5.12 28.62 4.26 29.79 5.12 29.34 3.74 30.52 2.88 29.07 2.88 28.62 1.5" fill="#fff"/><polygon points="28.62 8.5 28.17 9.88 26.71 9.88 27.89 10.74 27.44 12.12 28.62 11.26 29.79 12.12 29.34 10.74 30.52 9.88 29.07 9.88 28.62 8.5" fill="#fff"/><polygon points="28.62 15.5 28.17 16.88 26.71 16.88 27.89 17.74 27.44 19.12 28.62 18.26 29.79 19.12 29.34 17.74 30.52 16.88 29.07 16.88 28.62 15.5" fill="#fff"/><polygon points="28.62 22.5 28.17 23.88 26.71 23.88 27.89 24.74 27.44 26.12 28.62 25.26 29.79 26.12 29.34 24.74 30.52 23.88 29.07 23.88 28.62 22.5" fill="#fff"/><polygon points="29.07 30.88 28.62 29.5 28.17 30.88 26.71 30.88 27.89 31.74 27.44 33.12 28.62 32.26 29.79 33.12 29.34 31.74 30.52 30.88 29.07 30.88" fill="#fff"/><polygon points="32.73 5 32.28 6.38 30.83 6.38 32.01 7.24 31.56 8.62 32.73 7.76 33.91 8.62 33.46 7.24 34.63 6.38 33.18 6.38 32.73 5" fill="#fff"/><polygon points="32.73 12 32.28 13.38 30.83 13.38 32.01 14.24 31.56 15.62 32.73 14.76 33.91 15.62 33.46 14.24 34.63 13.38 33.18 13.38 32.73 12" fill="#fff"/><polygon points="32.73 19 32.28 20.38 30.83 20.38 32.01 21.24 31.56 22.62 32.73 21.76 33.91 22.62 33.46 21.24 34.63 20.38 33.18 20.38 32.73 19" fill="#fff"/><polygon points="33.18 27.38 32.73 26 32.28 27.38 30.83 27.38 32.01 28.24 31.56 29.62 32.73 28.76 33.91 29.62 33.46 28.24 34.63 27.38 33.18 27.38" fill="#fff"/><polygon points="36.85 1.5 36.4 2.88 34.95 2.88 36.12 3.74 35.67 5.12 36.85 4.26 38.03 5.12 37.58 3.74 38.75 2.88 37.3 2.88 36.85 1.5" fill="#fff"/><polygon points="36.85 8.5 36.4 9.88 34.95 9.88 36.12 10.74 35.67 12.12 36.85 11.26 38.03 12.12 37.58 10.74 38.75 9.88 37.3 9.88 36.85 8.5" fill="#fff"/><polygon points="36.85 15.5 36.4 16.88 34.95 16.88 36.12 17.74 35.67 19.12 36.85 18.26 38.03 19.12 37.58 17.74 38.75 16.88 37.3 16.88 36.85 15.5" fill="#fff"/><polygon points="36.85 22.5 36.4 23.88 34.95 23.88 36.12 24.74 35.67 26.12 36.85 25.26 38.03 26.12 37.58 24.74 38.75 23.88 37.3 23.88 36.85 22.5" fill="#fff"/><polygon points="37.3 30.88 36.85 29.5 36.4 30.88 34.95 30.88 36.12 31.74 35.67 33.12 36.85 32.26 38.03 33.12 37.58 31.74 38.75 30.88 37.3 30.88" fill="#fff"/><polygon points="40.97 5 40.52 6.38 39.06 6.38 40.24 7.24 39.79 8.62 40.97 7.76 42.14 8.62 41.69 7.24 42.87 6.38 41.42 6.38 40.97 5" fill="#fff"/><polygon points="40.97 12 40.52 13.38 39.06 13.38 40.24 14.24 39.79 15.62 40.97 14.76 42.14 15.62 41.69 14.24 42.87 13.38 41.42 13.38 40.97 12" fill="#fff"/><polygon points="40.97 19 40.52 20.38 39.06 20.38 40.24 21.24 39.79 22.62 40.97 21.76 42.14 22.62 41.69 21.24 42.87 20.38 41.42 20.38 40.97 19" fill="#fff"/><polygon points="41.42 27.38 40.97 26 40.52 27.38 39.06 27.38 40.24 28.24 39.79 29.62 40.97 28.76 42.14 29.62 41.69 28.24 42.87 27.38 41.42 27.38" fill="#fff"/><polygon points="44.36 3.74 43.91 5.12 45.08 4.26 46.26 5.12 45.81 3.74 46.98 2.88 45.53 2.88 45.08 1.5 44.63 2.88 43.18 2.88 44.36 3.74" fill="#fff"/><polygon points="45.08 8.5 44.63 9.88 43.18 9.88 44.36 10.74 43.91 12.12 45.08 11.26 46.26 12.12 45.81 10.74 46.98 9.88 45.53 9.88 45.08 8.5" fill="#fff"/><polygon points="45.08 15.5 44.63 16.88 43.18 16.88 44.36 17.74 43.91 19.12 45.08 18.26 46.26 19.12 45.81 17.74 46.98 16.88 45.53 16.88 45.08 15.5" fill="#fff"/><polygon points="45.08 22.5 44.63 23.88 43.18 23.88 44.36 24.74 43.91 26.12 45.08 25.26 46.26 26.12 45.81 24.74 46.98 23.88 45.53 23.88 45.08 22.5" fill="#fff"/><polygon points="45.53 30.88 45.08 29.5 44.63 30.88 43.18 30.88 44.36 31.74 43.91 33.12 45.08 32.26 46.26 33.12 45.81 31.74 46.98 30.88 45.53 30.88" fill="#fff"/></svg>