<svg id="a3494db0-a811-4a5b-b6c3-73a43690bb89" xmlns="http://www.w3.org/2000/svg" viewBox="0 0 18 18"><rect x="0.108" y="2.599" width="17.783" height="12.801" fill="#fff"/><path d="M0,2.5v13H18V2.5Zm5.946.98a1.77,1.77,0,0,0,.35-.1c.073,0,.269.041.084-.01a2.3,2.3,0,0,0,.592-.053A5.056,5.056,0,0,1,7.867,3.3l-.017,0a1.205,1.205,0,0,0-.256.012c.155,0,.3,0,.446.021-.122.007-.254.013-.374.03a1.787,1.787,0,0,0,.38,0s-.09.084-.11.069A5.18,5.18,0,0,1,8.468,3.4c-.208.039-.207.051-.41.093-.01.031.022.067-.107.145.161.065.015-.054.152.034-.051.045-.148-.007-.21.035.04.044.1.016.134.067v.032c-.007.02-.123,0-.142.013.076.043.071-.021.138.046-.022,0-.158.028-.16.03a.342.342,0,0,1,.1.018,2.308,2.308,0,0,0-.337.047,2.368,2.368,0,0,0,.239.019s-.019.061-.025.059c-.087,0-.119-.115-.212-.044a.41.41,0,0,1,.224.072c-.088.018.01.024.007.02a.411.411,0,0,0,0,.072s-.042.012-.045,0c-.019,0-.116-.01-.3-.04a.108.108,0,0,1,.087.045c-.009,0-.061.015-.064.028.084.009.188-.018.284-.006a.6.6,0,0,0-.164.071c-.275.16-.532.152-.76.28,0,0,.018-.052.025-.05a1.3,1.3,0,0,0-.371.286c-.048.259-.134.259-.2.124-.238-.031-.218-.046-.167-.246a.255.255,0,0,1-.08,0c-.006-.006.059-.062.059-.062s-.061.043-.074.055c.009-.13.024-.042.1-.123-.035-.014-.082.025-.121.015.015-.015.041-.025,0-.045.016-.012.08-.048.09-.058s-.063,0-.073-.02c.07-.035.123-.009.188-.031-.028,0-.114,0-.167,0a1.051,1.051,0,0,0,.163-.066c0,.01-.107.01-.12.007.144-.1.066-.152.019-.185.06-.01.188-.017.192-.022a.463.463,0,0,1-.1-.014c-.018-.011.092-.046.08-.037-.111.011-.065.012-.072-.051-.049.056-.033.052-.129.055.04-.036.08-.088.066-.1a.594.594,0,0,0-.545-.248.294.294,0,0,1,.079-.019A.152.152,0,0,0,5.6,3.7c0-.007.006-.011-.008-.011.014-.04.253-.033.256-.034a2.334,2.334,0,0,1-.272-.043l.5-.125A.576.576,0,0,0,5.946,3.48Zm.981,8.611c-.228.408-.224.47-.61.62-.017.173-.055.165-.095.383-.014.013.038.028.008.1s-.012-.057-.048-.051c-.107.422-.438.295-.452.277.2.372.194.367-.17.532,0,.013.066.158.044.176-.074.049-.1-.018-.17,0a.79.79,0,0,0,.125.172c-.006.008-.094-.02-.089-.007.048.349-.009.582.047.869-.105.058-.105-.007-.124.134l-.044-.035c-.037-.015.035-.037.016-.056-.033,0-.063.054-.064.054a.236.236,0,0,0-.039-.019.243.243,0,0,1,.006-.031.34.34,0,0,0,.067-.025c-.1.008-.1.053-.157,0,0-.007-.027-.036-.033-.04.023-.013.1.014.11.007s-.012-.03-.01-.039a.329.329,0,0,1-.2-.1c.017-.014.035.005.014-.024,0-.007.072.01.07.007a.542.542,0,0,1-.139-.222c.006.01.085,0,.082.016a1.1,1.1,0,0,0-.184-.13c.011,0,.018-.062.007-.077.043.014.057-.016.058-.042.029,0,.007.072,0,.076.05-.085.01.008.037.029a2.146,2.146,0,0,0-.035-.459c-.139-.122-.123-.27-.153-.55a6.022,6.022,0,0,0-.162-1.61c-.2-.511-.929-.74-.681-1.405-.012-.028-.038.006-.034-.132.01-.334.208-.681.176-.744-.011-.022-.077-.1-.2.026a6.11,6.11,0,0,1-.448-.558c-.351-.24-1.23-.227-1.245-.906a.851.851,0,0,1-.12-.195c-.044-.089-.211-.436-.3-.6a3.356,3.356,0,0,0,.2.8l-.034.025c-.119-.175-.186-.3-.271-.454.011-.045.07-.01,0-.205-.12-.336-.227-.53-.141-.735-.029-.033-.1.039-.1.006a1.31,1.31,0,0,1,.349-.734.545.545,0,0,1,.017-.2c.019.016.07.036.089.021,0,.012.014,0,.022,0,.007.04.043-.07.055-.138-.081-.034-.017-.006-.039-.106a.444.444,0,0,1-.119.029c.007-.022.053-.03-.044-.053.006-.006.032-.021.02-.03a1.323,1.323,0,0,1,.126-.119c-.043.008-.092.076-.132.093a1.278,1.278,0,0,1,.1-.181c0-.022-.094.052-.1.052s-.011-.033-.018-.035c.059-.06.156-.184.162-.193-.044.019-.055.083-.107.1,0-.007-.024,0-.015,0,.014-.045.054-.064.075-.11,0-.017-.093.044-.1.044a2.12,2.12,0,0,0,.1-.252c-.082,0-.044.012-.021-.076-.031.022-.044.1-.082.1,0-.018-.016-.03-.035-.011L1.7,5.152c-.036-.038-.037-.1-.09-.111.012,0,.038-.027.045-.031-.108-.028-.388-.119-.372-.109-.12.066-.255.105-.1.028-.082,0-.67.32-.914.372.011,0,.317-.225.317-.225C.429,5.1.373,5.1.226,5.118c.04-.058.143-.08.192-.173-.04.011-.155.116-.2.067,0-.016.013-.026-.006-.043.005-.025.01.01-.006-.011.023-.053.049-.079.047-.084.226-.089.354-.176.6-.266V4.6c-.146.006-.159.023-.318.023.045-.034.1-.058,0-.078.011,0,.02-.006.015-.007a1.864,1.864,0,0,0,.32-.075c-.01,0-.055.044-.05.043C.869,4.5.943,4.5.977,4.5c0,0-.053-.055,0-.06-.02,0,0,.007.02.015s.026-.008.024-.017a1.582,1.582,0,0,1-.142-.109c.014,0,.016,0,.015,0a2.217,2.217,0,0,1,.8-.194v.007a1.551,1.551,0,0,1,.257.031,11.7,11.7,0,0,0,1.317.022s-.045.076-.055.058c.159.025.339.034.481.07,0,0,0,0,0,.006a1.16,1.16,0,0,0-.113.039,1.927,1.927,0,0,1,.326.082l.016.037c.031-.11.556-.126.7-.151a.461.461,0,0,1-.064.1s.251-.162.277-.189l-.1-.031-.006-.023a2.159,2.159,0,0,0,.239-.122c0,.034-.009.1.021.118-.018.025-.089-.022-.1.039.006.01.03-.01.031,0,.013.034.075-.025.087.013,0,.008-.048.046-.062.08,0,0,.078-.078.123-.065.008,0,.021.032.029.035-.029.006-.073.093-.049.128.216-.162.2-.1.391-.192-.006.015-.033.043.03.035a1.95,1.95,0,0,1-.691.26l.186.055a3.707,3.707,0,0,1-.417.11s.085.048.116.04c-.21.075-.228.157-.464.356.006.027.095.01.087.029.036.042-.067.139-.067.153.229,0,.345.114.543.16a2.2,2.2,0,0,1-.062.344c.03-.018.081-.026.081.032.024-.036.073-.212.141-.269.16-.135.3-.575.367-.618a.364.364,0,0,1,.477,0c-.085.14-.026.075-.093.187-.007-.007.089-.045,0,.078.141-.084.31-.139.357-.183.026.109,0,.046-.016.146.019.055.082,0,.017.132a.189.189,0,0,1,.051.148c-.007-.029.129.006.156.016-.014.007.025.025.026.025a.854.854,0,0,0-.211.085c.026,0,0,.029-.007.03.1-.02.256-.073.216-.035a5.051,5.051,0,0,1-1.03.461c.04-.039-.2.2-.295.265.012,0,.017,0,.013.013a5.237,5.237,0,0,1,.727-.316s-.068.117-.062.1c.038.038.162.211.176.218-.154.064-.208.116-.335.164l-.016,0c.022-.024-.016-.016-.015-.016a1.248,1.248,0,0,1,.151-.147c-.01,0-.069.024.015-.047,0,0-.026,0-.018-.01-.08.029-.133.073-.185.095a.619.619,0,0,0-.274.256c.012-.005,0,.034,0,.036-.052.011-.259.037-.279.038-.053.1-.02.122-.124.2.012-.012,0-.029-.014-.039a1.119,1.119,0,0,0-.095.206,1.319,1.319,0,0,1,.044-.206c.009-.008.01.005.017-.013-.008,0-.009,0,0-.007s-.026.025-.023.014-.01.024-.007,0c-.036.031-.026.115-.033.122a.1.1,0,0,1-.025-.015.632.632,0,0,1,0,.117c-.009-.011-.036-.052-.049-.03.059.055.046.038.059.08,0-.007.012,0,.013-.019,0,0,.01.073.01.078a.437.437,0,0,1-.023-.059c-.015.025-.044.01-.05.021l-.006.025s.073.038.063,0c-.04.034-.072.024-.094.04.041-.025-.039.082-.045.092-.18.32-.376.056-.337.608A.055.055,0,0,0,4.1,7.818a.044.044,0,0,0,0-.02c-.007.038-.051.3-.051.328,0,0-.027,0-.026,0,0-.021.012-.013.011-.008a1.145,1.145,0,0,0-.085-.211c-.151-.006-.124-.391-.5-.239.035.048.076-.012.078.091l-.012.011s-.014-.008-.016,0c-.029-.016-.108-.057-.127-.049-.306.132-.571.685-.572.686.176.495.772.055.772.055a1.37,1.37,0,0,1-.206.507s.323-.009.343.035c.134.29-.111.618.476.7.158-.294.2-.183.426-.4-.047.108-.01.069-.011.2.026-.142.078-.117.1-.188a1.177,1.177,0,0,0,.581.132c-.03.135.034.024.011.2a1.7,1.7,0,0,1,.314.281c.372-.107.619.247.322.649.209-.037.121.047.221.1.246-.185.237-.2.358.05.078-.033.518-.1.624.173A2.373,2.373,0,0,1,6.927,12.091Zm8.956,2.389c-.071-.03-.055-.148-.059-.157-.4-.114-.212.121-.375-.321,0,0-.1.046-.115.03a.355.355,0,0,0,.066-.181c-.027.048-.1.169-.168.134.12-.051.016-.122-.072-.032,0-.019-.042-.06-.058-.05-.046-.756-1.332.047-1.865-.042a8.657,8.657,0,0,0,.107-1.005c0,.009.042-.058.041-.072.013.07.062-.282.148-.47a1.758,1.758,0,0,0,.96-.673s.038.138.042.136c.03-.124.018-.106.089-.145.2-.111.063-.386.392-.128.013-.014.1-.061.157-.024.086-.316.193-.212.349-.376.036-.021-.067-.1-.062-.117s.458.125.471.132c-.248.889.482.569.576-.191.028.156.054.379.128.442a3.368,3.368,0,0,1,.493,1.779A3.826,3.826,0,0,1,15.883,14.48ZM16.2,10.3c-.155.124-.136.251-.223.413-.124.038-.1,0-.19-.028-.265-.081-.375-.24-.152-.423.093-.172.267-.326.384-.512a.892.892,0,0,1,.189.154c-.047.079-.121.1-.154.154C16.088,10.13,16.177,10.205,16.2,10.3Zm1.245-5.335a1.907,1.907,0,0,0-.39,0,1.6,1.6,0,0,0,.307.339c0-.016.024.1.053.252a.549.549,0,0,0-.042.19.836.836,0,0,1-.444-.982s-.141-.021-.128-.009l.076.083c-.073,0-.01-.008-.059.066-.3-.031-.234-.159-.19.131-.013,0-.045,0-.047.007-.255-.045-.635-.171-.814.36.208.067.174.114.29.119.012,0-.035-.072-.039-.069a.588.588,0,0,1,.449.469,4.34,4.34,0,0,1-.253,1.317l-.027-.152c-.151.007-.114-.364-.468-.245-.025-.022.011-.123-.047-.2a.538.538,0,0,1-.2.16,1.754,1.754,0,0,1,.4.2c-.155.256-.117.051.129.484L15.9,7.454c.037.03.089.073.128.1,0,.011-.094.055-.1.061.134.122.162.026.112.191-.08.258-.126.5-.426.461l-.018.02c-.043.068-.147.17-.2.24-.012-.009,0-.008,0-.01s-.107-.205-.13-.119c-.093.349.349.978-.035,1.052-.012.047.056.075-.081.15-.081-.238-.18-.261-.345-.457a.088.088,0,0,1-.033.012.813.813,0,0,0,.07.569,2.834,2.834,0,0,1,.282.537c-.061-.047-.2-.105-.253-.247A7.144,7.144,0,0,0,14.5,8.793c-.093.134-.127.077-.174.127-.04-.378-.112-.409-.344-.694,0,.008-.007.028-.022.012,0,.039.067.088.012.15a.608.608,0,0,0-.165-.051,1.441,1.441,0,0,1-.139.246c-.25.357-.3.729-.5,1.064a2.9,2.9,0,0,1-.413-1.253c-.065.01-.3-.018-.3-.058a.265.265,0,0,0-.136-.164,2.876,2.876,0,0,1-1.347-.58c0,.024-.033.069-.075.045a4.415,4.415,0,0,0,.247.479s-.014-.142.021-.125a.493.493,0,0,0,.362-.018c.23.231.253.376.146.618a.828.828,0,0,1-1.034.429,6.1,6.1,0,0,1-.646-1.341c-.029-.006-.013.151-.04.164a2.282,2.282,0,0,0-.138-.2,3.212,3.212,0,0,1,.179.4,13.863,13.863,0,0,0,.629,1.288c.181-.024.4.079.629-.03,0,.034,0,.131,0,.122.033.365-.722,1.2-.837,1.615-.076.275,0,.608-.075.908a4.054,4.054,0,0,1-.625,1.179c-.69.73-.756.439-1.043-.153-.342-.708-.074-1.485-.175-2.05-.247-.241-.336-.4-.221-.555a.653.653,0,0,0-.125-.429c-.1-.1-.668.016-.9-.035-.437-.1-.772-.3-.793-.615-.181-.039-.109-.051-.023-.137-.059-.135-.059-.161.028-.465A1.568,1.568,0,0,1,8.215,7.377a.9.9,0,0,0,.384.3c.489.185,1.389.159,1.4-.678-.34.1-.567.074-.674-.127,0-.014.011-.009,0-.032,0,.006.045.046.053.016a.915.915,0,0,0-.08-.1s0-.032,0-.039a.808.808,0,0,1,.238-.06c.2-.1,1.163.112.392-.4.006-.021.031,0,0-.016.012-.045.1-.118.14-.155l-.009-.015c-.006.006-.057.022-.028,0-.04.047-.17.061-.224.1,0,.02.026-.04.009-.03s-.012.017-.021.023c0,.058.112.1.123.071l-.007.029c-.2-.094-.136.13-.2-.092-.046-.038-.1-.007-.138-.041,0,0,.074.009.065,0-.04.016-.043-.027-.06-.054a.55.55,0,0,0-.11.555c-.047,0-.16.013-.177.089a.593.593,0,0,0-.169-.061c0,.016.03.052.044.054s.01.019-.023.007c-.014.037-.048-.035-.076-.047l-.019.009c.067.15.011.077.009.141,0-.023.108.112.107.111-.047.051-.085-.064-.05.114-.017-.034-.038-.04-.046,0a.313.313,0,0,0-.1-.135s.022-.023.017-.029.1.023.1.023l-.126-.09c-.29-.27-.364-.526-.628-.584.137.149.441.483.441.483s-.144.163-.174.192c-.033-.117-.079-.357-.288-.378a.932.932,0,0,0-.708.1c-.276.1-.245.309-.68.363-.009-.035-.019-.148-.024-.174.016-.464.361-.493.6-.546C7.353,6.113,7.46,6.1,7.247,6c.019-.006.013-.03,0-.037.164-.013.16-.1.186-.11.161.086.118-.059.219-.1a1.271,1.271,0,0,1,.5-.24c-.013-.074-.046-.285-.049-.3,0,0-.044.039-.058.022s.132-.076.135-.084c-.056.325-.022.2.266.353,0,0-.041-.034-.049-.037V5.461a.65.65,0,0,0,.431-.124c0,.031-.047.068.011.054,0-.344.061-.063.165-.2.049-.058-.075-.124-.077-.154V5.027A2.61,2.61,0,0,1,9.3,4.963c-.015,0-.258-.088-.253-.043-.013-.106-.5.113-.1-.361-.011,0,0-.011,0-.012l-.007-.019a.059.059,0,0,1,0-.019,1.759,1.759,0,0,0-.188,0c-.214.059-.211.291-.1.467-.008.02-.015.028-.021.031l0,0c-.012.029-.134.055-.135.058-.024.16.02.174-.174.276-.034-.108-.112-.252-.163-.371C7.956,5.092,7.91,5,7.921,5c-.006,0-.061.031-.072.033.046-.057.048-.037.075-.105a.348.348,0,0,0-.078.065c0-.006,0-.029,0-.035.025-.045,0-.014-.012-.083.026-.027.105.013.119.006-.018-.009.014-.019.01-.017-.043-.02-.09,0-.131-.021,0-.009.02-.012,0-.037.023-.023.079.033.1,0,0,.014-.086-.009-.092-.024.09-.031.054.017.143-.035-.014.011-.052-.016-.055-.011a1.36,1.36,0,0,1,.224-.06c0-.019-.032,0-.048,0,.006-.007-.021-.017-.021-.015.09-.085.1-.068.176-.133-.007.017.008-.02.053-.076.012-.072.094-.1.029-.109V4.324c.063-.044.065,0,.136-.052a.5.5,0,0,1,.378-.126c.166-.054.092-.075.3-.018-.011.014-.067.021-.06.041a1.32,1.32,0,0,1,.683.226c-.108-.013-.493-.017-.513-.02a1.222,1.222,0,0,0,.4.252c-.011,0-.056-.081-.072-.085.035-.013.114.054.187.024.062-.127.029-.037.171-.1,0-.008-.111-.217-.111-.21s.229.041.2.064c-.03,0-.031-.01-.044.024a1.926,1.926,0,0,1,.424-.113c-.011.009,0,.039-.042.056a.785.785,0,0,1,.346-.008c0-.027.025-.047.037-.047-.011,0-.065-.048-.059-.052.13.047.337.057.486.1-.006-.008-.16-.155-.155-.154.021-.059.72-.045.246.277.274-.041.162.062.214-.154a.966.966,0,0,0,.286.091c-.162-.093-.322-.2-.487-.3-.015-.05.044-.07.021-.1.11.1.116.124.107.067a1.893,1.893,0,0,1,.456.136c-.017-.014.006-.027.013-.023-.1-.071-.212-.157-.322-.224.008,0,.029-.019.028-.02.041,0,.176-.019.236-.01-.02.012.06,0,.068,0-.147-.108-.011-.006-.14-.067.041-.011.084,0,.029-.031.087-.013.295-.056.295-.056l.265-.005a.417.417,0,0,0-.079-.033c.035-.017.1.007.136,0,0,.006-.072-.019-.071-.038.089-.012.215-.118.144-.007a1.533,1.533,0,0,1,.551.1c0-.025.034.019.048.026-.1.057-.149.126-.23.183a.129.129,0,0,0,.035-.013,1.266,1.266,0,0,1,.183-.057c-.006,0,.03.018.045,0,.066.016.059.058.124.058-.022,0,.048.01.048.01l-.068-.05s.448-.013.484-.01.265.05.372.068c0,.022-.052.022-.052.022a.905.905,0,0,1,.318.123c.02,0-.036-.083-.026-.087a2.381,2.381,0,0,0,.341.059c-.014-.056-.044-.009.072-.026-.012-.066-.093-.029-.118-.063.093,0,.055-.008.027-.041a1.421,1.421,0,0,0,.331.04l-.1.006a.484.484,0,0,0,.086.035,3.524,3.524,0,0,1,1.139.239c.015-.032-.041-.052-.05-.056.16,0,.368.05.532.043,0-.025-.134-.073-.137-.1a1.334,1.334,0,0,1,1.04.4c-.008,0-.009,0,0,.012a1.011,1.011,0,0,0-.2-.01c.006,0,.264.135.423.207A.941.941,0,0,0,17.444,4.962Z" fill="#3f4a86"/><path d="M4.314,6.09c-.209-.054-.13-.221-.489.065a2.152,2.152,0,0,1,.48.026C4.306,6.175,4.337,6.1,4.314,6.09Z" fill="#3f4a86"/><path d="M4.323,6.213c-.007,0,0,.012,0,.013a.352.352,0,0,1-.136,0c-.136-.087-.163.219-.239.385l0,0c.055-.085.285-.348.224-.277-.087-.025.218-.1.157-.054V6.3c.012.058-.082.09-.086.137.077-.011.07-.071.077.061.083-.047.093-.183.118-.206h.026c.015.008-.014.1.055.074-.013-.036.032-.022.035-.024l0-.008,0,0c-.077-.091-.069-.12-.245-.152,0,.005,0,.016,0,.015S4.321,6.212,4.323,6.213Z" fill="#3f4a86"/><path d="M4.316,6.185v0H4.305Z" fill="#3f4a86"/><path d="M11.178,6.661c-.026-.016.019-.014.019-.018-.173-.092-.038-.058-.13-.028a.944.944,0,0,0-.234-.3c.031-.054.093,0,.174-.074-.2-.25-.251-.072-.407.068a1.765,1.765,0,0,0,.318.389c.041.218-.151.206.295.3,0,.007-.028.006-.008.011h.014a.826.826,0,0,0-.143-.381C11.083,6.669,11.175,6.647,11.178,6.661Z" fill="#3f4a86"/></svg>