<svg id="b597f27a-bf22-4cf2-a9d7-72ba2b471436" xmlns="http://www.w3.org/2000/svg" viewBox="0 0 18 18"><rect x="1" y="2.75" width="16" height="12.5" fill="#fff"/><path d="M0,2.5v13H18V2.5ZM12.82,7.113a.741.741,0,0,1-.3.232.078.078,0,0,1,0,.06c-.025.125-.176.274-.186.253V7.9a2.845,2.845,0,0,0,0,.665c-.12.107-.133.386-.193.539a1.268,1.268,0,0,1-.252.426c-.08.026-.179.02-.179-.04a.918.918,0,0,0-.159.093.246.246,0,0,0-.146.1c-.16-.007-.286.126-.4.226-.008.023-.086.06-.086.06a.862.862,0,0,1-.04.106.76.76,0,0,1,.047.419c-.239.18-.206.492-.438.665a.119.119,0,0,1,0-.046.16.16,0,0,0,.1-.14.041.041,0,0,0,0-.04v-.086H10.51a.086.086,0,0,1-.046-.04.074.074,0,0,0,.033.06.057.057,0,0,0,0,.066.251.251,0,0,0,0,.067.159.159,0,0,0-.073.206,1.712,1.712,0,0,1-.252.459c-.219.053-.715.061-.715-.265.047-.034.018-.088-.022-.141a.357.357,0,0,1,0,.113,2.018,2.018,0,0,0,0,.22c.1.106.272.345.365.379.173.385-.5.572-.79.459a.146.146,0,0,0,.08.053.073.073,0,0,1,0,.08c.086.232-.159.259-.378.159-.067.073.006.22.132.266a.13.13,0,0,0,.073,0c.113-.026.113.014.113.107a.361.361,0,0,0-.206,0,.369.369,0,0,0,.153.08c-.146.066-.106.206-.106.319v.053a.208.208,0,0,1-.086,0c-.445.246.3.373.172.525a.073.073,0,0,1,.073,0c-.166.127-.153.433-.3.32v.033s.017-.01.048.009a.134.134,0,0,0-.055.171.2.2,0,0,1,.067.1h-.06a.31.31,0,0,1,.212.127.233.233,0,0,0-.152,0,.293.293,0,0,1-.16.086.544.544,0,0,0,.053.173.245.245,0,0,1-.205-.253s.079,0,.079.047v-.04c.047-.027.067-.1,0-.08s-.113.06-.113.12a.233.233,0,0,1-.093-.04v-.066a.576.576,0,0,1,.146-.04.13.13,0,0,0-.132,0,.039.039,0,0,0-.053,0v.073a.111.111,0,0,1-.106,0,.072.072,0,0,0,.059-.053.1.1,0,0,1-.133-.034l-.039-.046h.093c.079-.027.086.046.086.046.046-.026.006,0,0-.08,0-.014-.011-.016-.015-.025a.139.139,0,0,1-.191,0h-.04a1.323,1.323,0,0,0-.252-.166h.066A.743.743,0,0,0,8,14.562s-.014-.042,0-.053a.551.551,0,0,1-.119-.053.134.134,0,0,0,0-.04h.026s-.062-.026-.066-.06a.106.106,0,0,1,.066,0,.086.086,0,0,1-.059-.1.5.5,0,0,0,0,.08c-.047-.053,0-.18-.047-.18H7.756a.106.106,0,0,1-.073-.086.883.883,0,0,1,.3.04.2.2,0,0,1-.086-.093c-.026.066-.1-.007-.079,0H7.749a.083.083,0,0,1,.033-.047.111.111,0,0,0-.073-.073s-.1-.02-.1-.067l-.067.04a.036.036,0,0,1,0,.04c-.1-.046-.073-.093,0-.139a.08.08,0,0,1-.039-.054c.1-.006.159-.033.159-.073a.775.775,0,0,1,0,.12h-.04c.017.014.06,0,.06.06h.1a.223.223,0,0,0-.053-.193.113.113,0,0,1,.12,0,.233.233,0,0,0-.093-.04.2.2,0,0,1,0-.06c.073-.007.073-.04.073-.093l-.113-.047a.09.09,0,0,0,0-.046.163.163,0,0,1,0-.146.166.166,0,0,1-.04-.094.086.086,0,0,1-.04-.046.084.084,0,0,1,.047.04l-.053-.193a.07.07,0,0,1-.06,0,.089.089,0,0,1,.06-.047.338.338,0,0,0-.2,0,.265.265,0,0,1-.107-.272c.08-.133-.106-.366-.146-.513.053.014.053-.033.053-.093-.013-.232.093-.445.04-.665.053-.159-.106-.332-.106-.5a2.468,2.468,0,0,0,0-.665A1.937,1.937,0,0,0,7.1,9.487.94.94,0,0,0,6.853,8.5c-.252-.219-.75-.313-.916-.665a.58.58,0,0,0-.172-.319c-.093-.2-.226-.439-.319-.619s-.372-.379-.418-.519c.06-.026,0-.086,0-.146-.119-.194.163-.272.2-.448a.114.114,0,0,1-.071-.044A.264.264,0,0,1,5.2,5.463h.033a.649.649,0,0,1,.093-.286c.126-.007.126-.08.126-.12a.039.039,0,0,1,.04-.039h.033c-.02-.06-.013-.127.046-.127a.059.059,0,0,0,.073-.04v-.06a.066.066,0,0,0,.047-.053.47.47,0,0,1,0-.106.052.052,0,0,1,0-.054.213.213,0,0,0,0-.239.181.181,0,0,0,.04-.047.428.428,0,0,1-.04-.093.073.073,0,0,0,0-.073,1.37,1.37,0,0,1-.1-.306c.034.011.038.031.06.04L5.7,3.817c.033-.026.082.043.076-.03.126-.106.253-.14.253-.293A1.041,1.041,0,0,1,6.2,3.355a.326.326,0,0,0,.053,0c.06-.113.478-.34.571-.233-.113.066-.173.12-.113.219a.214.214,0,0,1-.08.213.256.256,0,0,0,.067.06c.145.126.106-.16.046-.266a1.23,1.23,0,0,1,.272-.086v-.04c-.06-.047-.046-.1,0-.1a.364.364,0,0,1,.06.133.192.192,0,0,1,.212.073c.053.126.206.06.365.06.1.126.272.066.405,0-.028-.01.332,0,.332,0a.426.426,0,0,1-.133.027l.011.011a.038.038,0,0,1-.011.055.137.137,0,0,1,.086.047.12.12,0,0,1,.087.013.517.517,0,0,0,.132.1.3.3,0,0,0-.086.146.281.281,0,0,1,.133,0l.008-.006a.1.1,0,0,1,.138.026c.166.066.259.206.166.359.093-.179.252.02.252.16.033-.107.113-.107.212-.047,0,0,.3-.086.3.067.08-.133.322.095.319.106s.114-.024.149.023a.107.107,0,0,1-.023.15,1.189,1.189,0,0,1,.133.406c.245.106.073.3-.1.406a.944.944,0,0,1-.212.239.108.108,0,0,1,.079,0,.673.673,0,0,0,.219-.126.694.694,0,0,1,.04.119l.047.047a.931.931,0,0,1,.272-.053c-.015.056-.033.112-.053.166a.806.806,0,0,1,.159-.213V5.57a.055.055,0,0,1,0-.047.093.093,0,0,1,.073,0H10.9a.114.114,0,0,0,.1.047h.067l.066.039c.053,0,.04.107.053.067a.053.053,0,0,1,.047-.04l.059.047.02.066a.966.966,0,0,1-.046.153.708.708,0,0,1,.106-.126.072.072,0,0,1,0,.046l.046-.04h.08a1.118,1.118,0,0,1,.285.074c.166.053.292.006.465.1a2.474,2.474,0,0,1,.345.293c.3.047.345.093.4.379A.528.528,0,0,1,12.82,7.113Z" fill="#3f4a86"/></svg>