<svg id="bbc91fcd-5d16-4ada-8618-23e3b241ce90" xmlns="http://www.w3.org/2000/svg" viewBox="0 0 18 9"><rect id="ab625030-a655-49e3-aef0-2b2aaa4dcb23" data-name="12" width="18" height="9" fill="#00008b"/><path id="b79c26f5-758b-45f7-8802-39995855dfef" data-name="6" d="M4.5,9.9l.26.81.8-.3-.48.71.74.43L5,11.62l.12.85-.59-.62-.59.62L4,11.62l-.85-.07.74-.43-.48-.71.8.3Z" transform="translate(0 -4.5)" fill="#fff"/><path id="a4b4a140-1050-410f-8b63-dc0dea82e11b" data-name="5" d="M13.5,11.36l.12.38L14,11.6l-.22.34.35.2-.41,0,.06.4-.28-.29-.28.29.06-.4-.41,0,.35-.2L13,11.6l.38.14Z" transform="translate(0 -4.5)" fill="#fff"/><path id="e5eee7e3-8c8b-4cca-8199-56a2e2cffc67" data-name="4" d="M11.25,7.79l.12.39L11.75,8l-.22.33.35.21-.41,0,.06.4-.28-.3L11,9l.06-.4-.41,0L11,8.37,10.75,8l.38.14Z" transform="translate(0 -4.5)" fill="#fff"/><path id="a6bcf295-f027-4372-b7ae-80ff7ef7022d" data-name="3" d="M13.5,5.36l.12.38L14,5.6l-.22.34.35.2-.41,0,.06.4-.28-.29-.28.29.06-.4-.41,0,.35-.2L13,5.6l.38.14Z" transform="translate(0 -4.5)" fill="#fff"/><path id="ff28b7ae-328d-4aaa-b368-f8b021f5c78e" data-name="2" d="M15.5,7.19l.12.39L16,7.44l-.22.33.35.21-.41,0,.06.4-.28-.3-.28.3.06-.4-.41,0,.35-.21L15,7.44l.38.14Z" transform="translate(0 -4.5)" fill="#fff"/><path id="f9eccef1-50c3-455b-b59d-25f02087f139" data-name="1" d="M14.4,9l.1.24.26,0-.2.17.06.25-.22-.14-.22.14.06-.25L14,9.26l.26,0Z" transform="translate(0 -4.5)" fill="#fff"/><polygon points="9 0 9 0 7.82 0 5.2 1.31 5.2 0 3.8 0 3.8 1.31 1.18 0 0 0 0 0.59 1.92 1.55 0 1.55 0 2.95 1.92 2.95 0 3.91 0 4.5 1.18 4.5 3.8 3.19 3.8 4.5 5.2 4.5 5.2 3.19 7.82 4.5 9 4.5 9 4.5 9 3.91 7.08 2.95 9 2.95 9 1.55 7.08 1.55 9 0.59 9 0" fill="#fff"/><polygon points="5.91 2.95 9 4.5 9 4.19 6.54 2.95 5.91 2.95" fill="red"/><polygon points="5.91 1.55 9 0 8.37 0 5.28 1.55 5.91 1.55" fill="red"/><polygon points="3.09 1.55 0 0 0 0 0 0.31 2.46 1.55 3.09 1.55" fill="red"/><polygon points="3.09 2.95 0 4.5 0.63 4.5 3.72 2.95 3.09 2.95" fill="red"/><polygon points="4.08 4.5 4.92 4.5 4.92 2.67 9 2.67 9 1.83 4.92 1.83 4.92 0 4.08 0 4.08 1.83 0 1.83 0 2.67 4.08 2.67 4.08 4.5" fill="red"/></svg>