<svg xmlns="http://www.w3.org/2000/svg" viewBox="0 0 52.4 48.35"><title>gears</title><path d="M17.3,48.35l-2.66-3.73a10.92,10.92,0,0,1-1.15-.08l-3.13,3.35-.62-.22a15.07,15.07,0,0,1-3.09-1.53l-.55-.35.77-4.52a10.77,10.77,0,0,1-.77-.88l-4.58.16L1.24,40a12.81,12.81,0,0,1-.65-1.6A13.73,13.73,0,0,1,.14,36.7L0,36.06,3.74,33.4a11.11,11.11,0,0,1,.07-1.16L.46,29.12l.23-.62a15,15,0,0,1,1.52-3.09l.36-.55,4.51.77A10.77,10.77,0,0,1,8,24.86L7.8,20.28,8.4,20a13.94,13.94,0,0,1,3.25-1.1l.65-.14L15,22.5a11.11,11.11,0,0,1,1.16.07l3.13-3.35.62.22A15.25,15.25,0,0,1,22.94,21l.55.36-.76,4.51a10.66,10.66,0,0,1,.76.88l4.59-.16.28.6c.26.56.47,1.08.65,1.59a15.21,15.21,0,0,1,.45,1.66l.14.65-3.74,2.65a11.11,11.11,0,0,1-.08,1.16L29.13,38l-.22.61a15.07,15.07,0,0,1-1.53,3.09l-.35.56-4.52-.77a10.66,10.66,0,0,1-.88.76l.16,4.58-.59.29c-.56.26-1.08.47-1.59.65s-1.07.32-1.67.45Zm-1.64-5.76,2.5,3.52c.28-.07.55-.15.8-.24a7,7,0,0,0,.79-.3l-.15-4.31L20,41a9.58,9.58,0,0,0,1.39-1.21l.37-.4,4.24.72a15.14,15.14,0,0,0,.75-1.51l-3.15-2.94.09-.54a8.54,8.54,0,0,0,.12-1.83l0-.54,3.52-2.5c-.07-.29-.15-.55-.24-.81a7.72,7.72,0,0,0-.3-.78l-4.31.14-.31-.44A10.05,10.05,0,0,0,21,26.92l-.4-.36.72-4.25a14.14,14.14,0,0,0-1.51-.75l-2.94,3.15-.53-.09a9.39,9.39,0,0,0-1.84-.12l-.54,0L11.44,21l-.81.24-.78.3L10,25.86l-.45.31a8.93,8.93,0,0,0-1.38,1.21l-.37.39-4.25-.72a14.29,14.29,0,0,0-.75,1.52L6,31.5,5.86,32a9.28,9.28,0,0,0-.12,1.84l0,.54-3.52,2.5c.08.28.16.54.24.8s.19.52.3.79l4.31-.15.32.44a9,9,0,0,0,1.21,1.39l.39.37L8.29,44.8a11.28,11.28,0,0,0,1.52.75l2.94-3.15.53.09a9.23,9.23,0,0,0,1.84.12Z" transform="translate(0 0)"/><path d="M34.75,26H34.1l-.65,0L32,22.26c-.28-.08-.55-.17-.82-.27L27.89,24.1l-.55-.37a13.08,13.08,0,0,1-2.25-1.95l-.45-.49,1.62-3.6c-.14-.25-.26-.51-.38-.78L22,16.05l-.12-.65a14.09,14.09,0,0,1-.2-1.48,12.27,12.27,0,0,1,0-1.49l0-.66,3.69-1.4c.08-.28.17-.55.27-.82L23.57,6.22l.37-.55a12.71,12.71,0,0,1,2-2.25L26.38,3,30,4.59q.38-.21.78-.39L31.62.35l.65-.12A11.86,11.86,0,0,1,33.75,0a14.52,14.52,0,0,1,1.49,0l.66,0,1.4,3.7c.28.08.55.17.82.27l3.34-2.12.54.38a13.53,13.53,0,0,1,2.26,1.95l.44.49-1.62,3.6c.14.25.27.51.39.77l3.86.87.12.65a13.06,13.06,0,0,1,.21,3l0,.66-3.7,1.4c-.08.28-.17.55-.27.82l2.12,3.34-.38.54a13.08,13.08,0,0,1-1.95,2.25L43,23l-3.6-1.62a7.85,7.85,0,0,1-.77.38l-.87,3.86-.64.12a12.12,12.12,0,0,1-1.48.2C35.32,26,35,26,34.75,26Zm-3.7-6.27.49.23a7.67,7.67,0,0,0,1.47.48l.53.12L34.84,24l.62,0,.6-.07.81-3.59.5-.19a7.5,7.5,0,0,0,1.39-.69l.46-.29,3.34,1.51a10.3,10.3,0,0,0,.81-.94l-2-3.1.22-.49a7.69,7.69,0,0,0,.49-1.47l.11-.53,3.44-1.3c0-.21,0-.42,0-.61l-.06-.61L42,10.8l-.19-.5a6.93,6.93,0,0,0-.69-1.39l-.29-.45,1.51-3.35a11.72,11.72,0,0,0-.93-.81l-3.1,2L37.81,6a8,8,0,0,0-1.48-.48l-.52-.12L34.5,2l-.61,0-.61.07-.8,3.59L32,5.87a6.59,6.59,0,0,0-1.38.69l-.46.29L26.78,5.34c-.28.3-.55.61-.8.93l2,3.1-.22.5a7.46,7.46,0,0,0-.49,1.47l-.12.52-3.44,1.31a6.08,6.08,0,0,0,0,.61c0,.2,0,.4.06.61l3.59.8.19.51a8.18,8.18,0,0,0,.69,1.39l.29.45L27,20.89a9,9,0,0,0,.93.81Z" transform="translate(0 0)"/><path d="M41.87,46.93l-.78,0-.65,0-1.06-3-.48-.17-2.73,1.64-.54-.39a10.63,10.63,0,0,1-1.79-1.63l-.44-.5,1.38-2.87c-.07-.15-.15-.3-.21-.46l-3.1-.77-.1-.65a9.09,9.09,0,0,1-.13-1.21,10,10,0,0,1,0-1.22L31.3,35l3-1.06c0-.16.11-.32.17-.48L32.84,30.7l.38-.54a11.14,11.14,0,0,1,1.64-1.79l.49-.44,2.88,1.38c.15-.07.3-.15.46-.21l.77-3.1.65-.1a10.86,10.86,0,0,1,1.21-.13,9.84,9.84,0,0,1,1.21,0l.66,0,1.06,3,.47.17,2.74-1.64.54.38a11.14,11.14,0,0,1,1.79,1.64l.43.49-1.37,2.88.21.46,3.09.77.11.65a11.12,11.12,0,0,1,.13,1.21,10.12,10.12,0,0,1,0,1.22l0,.65-3,1.06c0,.16-.11.32-.17.47L50.79,42l-.39.53a10.33,10.33,0,0,1-1.63,1.8l-.5.43L45.4,43.38l-.46.21-.77,3.09-.65.11a11.12,11.12,0,0,1-1.21.13Zm-3.09-5.51.48.24a6.32,6.32,0,0,0,1.13.4l.52.13,1,2.74h.34l.33,0,.7-2.82.51-.18a5.42,5.42,0,0,0,1.09-.5l.46-.28,2.61,1.25c.16-.16.32-.33.46-.5l-1.49-2.49.24-.49a6.75,6.75,0,0,0,.4-1.12l.13-.53,2.74-1c0-.11,0-.22,0-.34s0-.22,0-.33l-2.82-.71-.18-.51a5.33,5.33,0,0,0-.51-1.08l-.27-.46,1.25-2.62c-.16-.16-.33-.31-.51-.46l-2.48,1.5L44.36,31a6,6,0,0,0-1.12-.4l-.53-.13-1-2.74h-.34l-.33,0-.71,2.82-.51.18a5.6,5.6,0,0,0-1.08.5l-.46.28L35.7,30.32c-.16.16-.31.33-.46.5l1.5,2.48-.24.49a5.81,5.81,0,0,0-.4,1.13l-.13.52-2.74,1v.34l0,.33,2.82.71.17.5a6.06,6.06,0,0,0,.51,1.09l.28.46-1.25,2.62c.16.16.33.31.5.45Z" transform="translate(0 0)"/><circle cx="14.8" cy="33.56" r="3"/><circle cx="34.67" cy="13" r="2.5"/><circle cx="41.81" cy="36.34" r="2"/></svg>