<svg xmlns="http://www.w3.org/2000/svg" viewBox="0 0 96 96"><g opacity="0"><rect width="96" height="96" fill="#fff"/></g><path d="M82.13,40.394a1.759,1.759,0,0,0-1.474-1.206L60.41,36.335a2.28,2.28,0,0,1-1.718-1.212l-9.055-17.8a1.851,1.851,0,0,0-3.274,0l-9.055,17.8a2.278,2.278,0,0,1-1.718,1.212L15.344,39.188a1.759,1.759,0,0,0-1.474,1.206,1.688,1.688,0,0,0,.462,1.814L28.984,56.062a2.171,2.171,0,0,1,.656,1.96L26.181,77.585a1.7,1.7,0,0,0,.727,1.731,1.821,1.821,0,0,0,1.922.134l18.11-9.236a2.337,2.337,0,0,1,2.123,0L67.172,79.45a1.823,1.823,0,0,0,1.922-.134,1.7,1.7,0,0,0,.726-1.731L66.361,58.022a2.18,2.18,0,0,1,.656-1.96L81.668,42.208A1.688,1.688,0,0,0,82.13,40.394Z" class="sgmaincolor"/><path d="M27.972,80.663a2.836,2.836,0,0,1-1.64-.529A2.691,2.691,0,0,1,25.2,77.411l3.459-19.563a1.18,1.18,0,0,0-.36-1.06L13.645,42.935a2.681,2.681,0,0,1-.723-2.859A2.754,2.754,0,0,1,15.206,38.2l20.245-2.853a1.277,1.277,0,0,0,.966-.676l9.054-17.8a2.85,2.85,0,0,1,5.057,0l9.056,17.8a1.277,1.277,0,0,0,.965.676L80.8,38.2a2.754,2.754,0,0,1,2.283,1.882,2.679,2.679,0,0,1-.725,2.855L67.705,56.789a1.179,1.179,0,0,0-.359,1.06L70.8,77.41a2.69,2.69,0,0,1-1.133,2.724,2.824,2.824,0,0,1-2.953.207L48.609,71.105a1.336,1.336,0,0,0-1.214,0l-18.11,9.236A2.882,2.882,0,0,1,27.972,80.663ZM48,17.337a.774.774,0,0,0-.745.44L38.2,35.577a3.282,3.282,0,0,1-2.47,1.748L15.484,40.178a.754.754,0,0,0-.664.53.687.687,0,0,0,.2.773L29.672,55.335a3.174,3.174,0,0,1,.953,2.862L27.166,77.759a.7.7,0,0,0,.317.74.824.824,0,0,0,.893.061l18.11-9.236a3.335,3.335,0,0,1,3.032,0L67.627,78.56a.82.82,0,0,0,.891-.061.69.69,0,0,0,.318-.74L65.377,58.2a3.174,3.174,0,0,1,.952-2.86L80.98,41.481a.682.682,0,0,0,.2-.77v0a.753.753,0,0,0-.663-.53L60.27,37.325a3.284,3.284,0,0,1-2.47-1.748l-9.055-17.8A.777.777,0,0,0,48,17.337Z"/></svg>