<svg xmlns="http://www.w3.org/2000/svg" viewBox="0 0 22 21"><path d="M11,1a.225.225,0,0,1,.2.1l2.92,5.374.212.389.431.105,6.051,1.466a.244.244,0,0,1,.111.411L16.405,12.2l-.483.358.089.594.969,6.484,0,.035.008.034a.223.223,0,0,1-.043.2.257.257,0,0,1-.193.1.321.321,0,0,1-.075-.01l-5.2-2.866L11,16.858l-.483.266L5.354,19.971A.239.239,0,0,1,5.243,20a.257.257,0,0,1-.193-.1.223.223,0,0,1-.043-.2l.008-.034,0-.035.969-6.484.089-.594L5.6,12.2,1.074,8.849a.244.244,0,0,1,.1-.409L7.236,6.972l.431-.105.212-.389,2.91-5.355A.232.232,0,0,1,11,1m0-1A1.231,1.231,0,0,0,9.921.626L7,6,.942,7.468A1.243,1.243,0,0,0,.448,9.629L5,13l-.969,6.484A1.24,1.24,0,0,0,5.8,20.866L11,18l5.2,2.866a1.24,1.24,0,0,0,1.77-1.382L17,13l4.552-3.371a1.243,1.243,0,0,0-.494-2.161L15,6,12.079.626A1.231,1.231,0,0,0,11,0Z"/></svg>